<svg width="130" height="50" viewBox="0 0 130 50" fill="none"  xmlns="http://www.w3.org/2000/svg">
<path d="M9.64936 40.7882L25.5161 47.0933L41.2315 40.4462L47.6085 24.7583L40.8857 9.22001L25.0189 2.91492L9.30349 9.56197L2.92653 25.2499L9.64936 40.7882ZM25.5377 50C25.3648 50 25.1702 49.9573 25.0189 49.8931L8.07133 43.1606C7.72546 43.0323 7.44445 42.7545 7.29313 42.4125L0.116346 25.8056C-0.0349712 25.4636 -0.0349713 25.0789 0.0947296 24.7369L6.90402 7.98036C7.03373 7.63839 7.31474 7.36054 7.66061 7.21093L24.4569 0.115036C24.8027 -0.0345764 25.1918 -0.0345777 25.5377 0.0936613L42.4853 6.82621C42.8312 6.95445 43.1122 7.2323 43.2635 7.57427L50.4403 24.1812C50.5916 24.5232 50.5916 24.9079 50.4619 25.2499L43.6526 42.0064C43.5229 42.3484 43.2419 42.6263 42.896 42.7759L26.0998 49.8718C25.9268 49.9573 25.7323 50 25.5377 50ZM28.9316 24.7369L22.1439 32.132H32.8442V35.3166H17.7124V32.132L24.4353 24.7583L17.734 17.8548V14.6702H32.8226V17.8548H22.2736L28.9316 24.7369ZM59.0221 33.2648V15.461H71.3653V18.2181H62.1782V22.8347H71.1708V25.5919H62.1782V30.529H71.3653V33.2862H59.0221V33.2648ZM86.2377 21.0394C86.2377 19.3295 84.9407 18.2181 83.1681 18.2181H78.8448V23.882H83.1681C84.9407 23.8606 86.2377 22.7492 86.2377 21.0394ZM85.9783 33.2648L81.9792 26.6178H78.8448V33.2648H75.6887V15.461H83.6005C87.1672 15.461 89.4802 17.7479 89.4802 21.0394C89.4802 24.224 87.3834 25.9338 85.2217 26.2758L89.6316 33.2648H85.9783ZM91.8797 24.3736C91.8797 18.7952 96.1166 15.1617 101.326 15.1617C104.828 15.1617 107.141 16.8288 108.589 18.8807L105.995 20.3127C105.044 18.9875 103.358 17.9403 101.326 17.9403C97.7595 17.9403 95.1222 20.6333 95.1222 24.3736C95.1222 28.1139 97.7595 30.8283 101.326 30.8283C103.164 30.8283 104.785 29.9733 105.585 29.2253V26.4468H100.202V23.6896H108.741V30.3581C106.968 32.303 104.439 33.5854 101.305 33.5854C96.1166 33.6068 91.8797 29.952 91.8797 24.3736ZM126.445 24.3736C126.445 20.6974 124.089 17.9403 120.479 17.9403C116.825 17.9403 114.512 20.6974 114.512 24.3736C114.512 28.0284 116.825 30.8069 120.479 30.8069C124.11 30.8069 126.445 28.0284 126.445 24.3736ZM111.27 24.3736C111.27 19.0517 115.075 15.1617 120.479 15.1617C125.883 15.1617 129.688 19.0517 129.688 24.3736C129.688 29.6955 125.883 33.5854 120.479 33.5854C115.075 33.5854 111.27 29.6955 111.27 24.3736Z" fill="white"/>
</svg>
