<svg width="544" height="500" viewBox="0 0 544 500" fill="none" xmlns="http://www.w3.org/2000/svg">
<g clip-path="url(#clip0_464_2600)">
<path d="M529.555 330.38C529.555 424.058 411.003 500 264.773 500C118.544 500 0 424.058 0 330.38C0 236.712 118.544 160.761 264.773 160.761C411.003 160.77 529.555 236.712 529.555 330.38Z" fill="url(#paint0_radial_464_2600)"/>
<g opacity="0.3">
<g opacity="0.3">
<path opacity="0.3" d="M246.225 456.226L248.488 457.533L310.633 421.651L308.369 420.353L246.225 456.226Z" fill="#0A208E"/>
</g>
<g opacity="0.3">
<path opacity="0.3" d="M235.12 449.819L237.384 451.126L299.528 415.244L297.273 413.938L235.12 449.819Z" fill="#0A208E"/>
</g>
<g opacity="0.3">
<path opacity="0.3" d="M224.024 443.403L226.288 444.71L288.433 408.828L286.169 407.531L224.024 443.403Z" fill="#0A208E"/>
</g>
<g opacity="0.3">
<path opacity="0.3" d="M212.92 436.997L215.184 438.303L277.328 402.421L275.073 401.115L212.92 436.997Z" fill="#0A208E"/>
</g>
<g opacity="0.3">
<path opacity="0.3" d="M201.824 430.581L204.088 431.887L266.232 396.006L263.969 394.708L201.824 430.581Z" fill="#0A208E"/>
</g>
<g opacity="0.3">
<path opacity="0.3" d="M190.72 424.174L192.984 425.481L255.128 389.599L252.873 388.292L190.72 424.174Z" fill="#0A208E"/>
</g>
<g opacity="0.3">
<path opacity="0.3" d="M179.624 417.758L181.888 419.065L244.032 383.183L241.768 381.885L179.624 417.758Z" fill="#0A208E"/>
</g>
<g opacity="0.3">
<path opacity="0.3" d="M168.52 411.351L170.783 412.658L232.928 376.776L230.673 375.47L168.52 411.351Z" fill="#0A208E"/>
</g>
<g opacity="0.3">
<path opacity="0.3" d="M157.424 404.945L159.688 406.242L221.832 370.36L219.568 369.063L157.424 404.945Z" fill="#0A208E"/>
</g>
<g opacity="0.3">
<path opacity="0.3" d="M146.319 398.529L148.583 399.835L210.727 363.954L208.473 362.647L146.319 398.529Z" fill="#0A208E"/>
</g>
<g opacity="0.3">
<path opacity="0.3" d="M135.224 392.113L137.487 393.42L199.632 357.538L197.368 356.231L135.224 392.113Z" fill="#0A208E"/>
</g>
<g opacity="0.3">
<path opacity="0.3" d="M124.119 385.706L126.383 387.013L188.527 351.131L186.272 349.825L124.119 385.706Z" fill="#0A208E"/>
</g>
<g opacity="0.3">
<path opacity="0.3" d="M113.023 379.291L115.287 380.597L177.432 344.715L175.168 343.418L113.023 379.291Z" fill="#0A208E"/>
</g>
<g opacity="0.3">
<path opacity="0.3" d="M101.919 372.884L104.183 374.19L166.327 338.308L164.072 337.002L101.919 372.884Z" fill="#0A208E"/>
</g>
<g opacity="0.3">
<path opacity="0.3" d="M90.8232 366.468L93.0871 367.774L155.231 331.893L152.968 330.586L90.8232 366.468Z" fill="#0A208E"/>
</g>
<g opacity="0.3">
<path opacity="0.3" d="M79.7188 360.061L81.9826 361.368L144.127 325.486L141.872 324.179L79.7188 360.061Z" fill="#0A208E"/>
</g>
<g opacity="0.3">
<path opacity="0.3" d="M68.623 353.645L70.8869 354.952L133.031 319.07L130.767 317.764L68.623 353.645Z" fill="#0A208E"/>
</g>
</g>
<g opacity="0.3">
<g opacity="0.3">
<path opacity="0.3" d="M306.981 456.235L304.726 457.541L242.582 421.66L244.837 420.353L306.981 456.235Z" fill="#0A208E"/>
</g>
<g opacity="0.3">
<path opacity="0.3" d="M318.086 449.819L315.822 451.126L253.678 415.244L255.942 413.937L318.086 449.819Z" fill="#0A208E"/>
</g>
<g opacity="0.3">
<path opacity="0.3" d="M329.181 443.412L326.927 444.719L264.782 408.837L267.037 407.531L329.181 443.412Z" fill="#0A208E"/>
</g>
<g opacity="0.3">
<path opacity="0.3" d="M340.286 436.997L338.022 438.303L275.878 402.421L278.142 401.115L340.286 436.997Z" fill="#0A208E"/>
</g>
<g opacity="0.3">
<path opacity="0.3" d="M351.391 430.59L349.127 431.887L286.982 396.014L289.237 394.708L351.391 430.59Z" fill="#0A208E"/>
</g>
<g opacity="0.3">
<path opacity="0.3" d="M362.486 424.174L360.222 425.48L298.078 389.599L300.342 388.292L362.486 424.174Z" fill="#0A208E"/>
</g>
<g opacity="0.3">
<path opacity="0.3" d="M373.582 417.767L371.327 419.065L309.183 383.192L311.438 381.885L373.582 417.767Z" fill="#0A208E"/>
</g>
<g opacity="0.3">
<path opacity="0.3" d="M384.686 411.351L382.423 412.658L320.278 376.776L322.542 375.47L384.686 411.351Z" fill="#0A208E"/>
</g>
<g opacity="0.3">
<path opacity="0.3" d="M395.782 404.945L393.527 406.242L331.383 370.369L333.638 369.063L395.782 404.945Z" fill="#0A208E"/>
</g>
<g opacity="0.3">
<path opacity="0.3" d="M406.887 398.529L404.623 399.835L342.479 363.954L344.742 362.647L406.887 398.529Z" fill="#0A208E"/>
</g>
<g opacity="0.3">
<path opacity="0.3" d="M417.991 392.113L415.727 393.42L353.583 357.547L355.838 356.24L417.991 392.113Z" fill="#0A208E"/>
</g>
<g opacity="0.3">
<path opacity="0.3" d="M429.087 385.706L426.823 387.013L364.679 351.131L366.943 349.825L429.087 385.706Z" fill="#0A208E"/>
</g>
<g opacity="0.3">
<path opacity="0.3" d="M440.182 379.299L437.928 380.597L375.783 344.724L378.038 343.418L440.182 379.299Z" fill="#0A208E"/>
</g>
<g opacity="0.3">
<path opacity="0.3" d="M451.287 372.884L449.023 374.19L386.879 338.308L389.143 337.002L451.287 372.884Z" fill="#0A208E"/>
</g>
<g opacity="0.3">
<path opacity="0.3" d="M462.392 366.468L460.128 367.774L397.983 331.893L400.238 330.586L462.392 366.468Z" fill="#0A208E"/>
</g>
<g opacity="0.3">
<path opacity="0.3" d="M473.487 360.061L471.223 361.368L409.079 325.486L411.343 324.179L473.487 360.061Z" fill="#0A208E"/>
</g>
<g opacity="0.3">
<path opacity="0.3" d="M484.583 353.645L482.328 354.952L420.184 319.07L422.439 317.773L484.583 353.645Z" fill="#0A208E"/>
</g>
</g>
<path d="M255.602 211.881L253.347 213.188L191.193 177.306L193.457 176L255.602 211.881Z" fill="#4CE8F3"/>
<path d="M251.664 195.39V200.991L253.364 203.264V213.188L255.619 211.881V201.967L257.319 197.725V192.124L251.664 195.39Z" fill="#26C2CD"/>
<path d="M268.764 198.728L263.109 202.003L251.664 195.39L257.319 192.124L268.764 198.728Z" fill="#4CE8F3"/>
<path d="M244.506 218.288L242.242 219.594L180.098 183.713L182.362 182.406L244.506 218.288Z" fill="#4CE8F3"/>
<path d="M240.568 201.797V207.398L242.268 209.68V219.594L244.523 218.288V208.374L246.224 204.132V198.531L240.568 201.797Z" fill="#26C2CD"/>
<path d="M257.668 205.143L252.013 208.409L240.568 201.797L246.224 198.531L257.668 205.143Z" fill="#4CE8F3"/>
<path d="M233.41 224.695L231.146 226.001L169.002 190.12L171.257 188.822L233.41 224.695Z" fill="#4CE8F3"/>
<path d="M229.464 208.204V213.805L231.164 216.087V226.001L233.428 224.704V214.78L235.128 210.539V204.938L229.464 208.204Z" fill="#26C2CD"/>
<path d="M246.573 211.55L240.917 214.816L229.464 208.204L235.128 204.938L246.573 211.55Z" fill="#4CE8F3"/>
<path d="M222.305 231.111L220.051 232.417L157.906 196.535L160.161 195.229L222.305 231.111Z" fill="#4CE8F3"/>
<path d="M218.368 214.619V220.221L220.068 222.494V232.417L222.323 231.111V221.187L224.023 216.955V211.353L218.368 214.619Z" fill="#26C2CD"/>
<path d="M235.477 217.957L229.813 221.223L218.368 214.619L224.023 211.353L235.477 217.957Z" fill="#4CE8F3"/>
<path d="M211.21 237.517L208.946 238.824L146.802 202.942L149.066 201.636L211.21 237.517Z" fill="#4CE8F3"/>
<path d="M207.272 221.026V226.628L208.973 228.9V238.824L211.228 237.517V227.594L212.928 223.362V217.76L207.272 221.026Z" fill="#26C2CD"/>
<path d="M224.372 224.364L218.717 227.639L207.272 221.026L212.928 217.76L224.372 224.364Z" fill="#4CE8F3"/>
<path d="M200.114 243.924L197.85 245.231L135.706 209.349L137.97 208.042L200.114 243.924Z" fill="#4CE8F3"/>
<path d="M196.177 227.433V233.034L197.868 235.307V245.231L200.132 243.924V234.01L201.832 229.768V224.167L196.177 227.433Z" fill="#26C2CD"/>
<path d="M213.277 230.78L207.621 234.046L196.177 227.433L201.832 224.167L213.277 230.78Z" fill="#4CE8F3"/>
<path d="M189.019 250.331L186.755 251.637L124.61 215.756L126.865 214.449L189.019 250.331Z" fill="#4CE8F3"/>
<path d="M185.072 233.84V239.441L186.772 241.723V251.637L189.036 250.331V240.417L190.736 236.175V230.574L185.072 233.84Z" fill="#26C2CD"/>
<path d="M202.181 237.186L196.526 240.452L185.072 233.84L190.736 230.574L202.181 237.186Z" fill="#4CE8F3"/>
<path d="M177.914 256.747L175.659 258.044L113.506 222.172L115.77 220.865L177.914 256.747Z" fill="#4CE8F3"/>
<path d="M173.977 240.256V245.857L175.677 248.13V258.044L177.932 256.747V246.823L179.641 242.582V236.981L173.977 240.256Z" fill="#26C2CD"/>
<path d="M191.085 243.593L185.421 246.859L173.977 240.256L179.641 236.981L191.085 243.593Z" fill="#4CE8F3"/>
<path d="M166.818 263.154L164.554 264.46L102.41 228.578L104.674 227.272L166.818 263.154Z" fill="#4CE8F3"/>
<path d="M162.881 246.662V252.264L164.581 254.537V264.46L166.836 263.154V253.23L168.536 248.998V243.396L162.881 246.662Z" fill="#26C2CD"/>
<path d="M179.981 250L174.325 253.266L162.881 246.662L168.536 243.396L179.981 250Z" fill="#4CE8F3"/>
<path d="M155.724 269.56L153.46 270.867L91.3154 234.985L93.5703 233.679L155.724 269.56Z" fill="#4CE8F3"/>
<path d="M151.777 253.069V258.671L153.477 260.943V270.867L155.741 269.56V259.646L157.441 255.405V249.803L151.777 253.069Z" fill="#26C2CD"/>
<path d="M168.886 256.407L163.231 259.682L151.777 253.069L157.441 249.803L168.886 256.407Z" fill="#4CE8F3"/>
<path d="M144.619 275.967L142.364 277.274L80.2109 241.392L82.4748 240.086L144.619 275.967Z" fill="#4CE8F3"/>
<path d="M140.682 259.476V265.077L142.382 267.359V277.274L144.637 275.967V266.053L146.346 261.811V256.21L140.682 259.476Z" fill="#26C2CD"/>
<path d="M157.79 262.823L152.126 266.089L140.682 259.476L146.346 256.21L157.79 262.823Z" fill="#4CE8F3"/>
<path d="M133.523 282.374L131.268 283.681L69.1152 247.799L71.3791 246.501L133.523 282.374Z" fill="#4CE8F3"/>
<path d="M129.586 265.892V271.484L131.286 273.766V283.681L133.541 282.383V272.46L135.241 268.218V262.617L129.586 265.892Z" fill="#26C2CD"/>
<path d="M146.686 269.229L141.031 272.495L129.586 265.892L135.241 262.617L146.686 269.229Z" fill="#4CE8F3"/>
<path d="M122.428 288.79L120.164 290.096L58.0195 254.215L60.2834 252.908L122.428 288.79Z" fill="#4CE8F3"/>
<path d="M118.49 272.299V277.9L120.19 280.173V290.096L122.445 288.79V278.866L124.145 274.634V269.024L118.49 272.299Z" fill="#26C2CD"/>
<path d="M135.59 275.636L129.935 278.902L118.49 272.299L124.145 269.024L135.59 275.636Z" fill="#4CE8F3"/>
<path d="M111.332 295.197L109.068 296.503L46.9238 260.621L49.1787 259.315L111.332 295.197Z" fill="#4CE8F3"/>
<path d="M107.386 278.705V284.307L109.086 286.58V296.503L111.35 295.197V285.273L113.05 281.041V275.439L107.386 278.705Z" fill="#26C2CD"/>
<path d="M124.494 282.043L118.83 285.318L107.386 278.705L113.05 275.439L124.494 282.043Z" fill="#4CE8F3"/>
<path d="M100.227 301.603L97.9726 302.91L35.8193 267.028L38.0832 265.722L100.227 301.603Z" fill="#4CE8F3"/>
<path d="M96.29 285.112V290.714L97.9902 292.987V302.91L100.245 301.604V291.689L101.945 287.448V281.846L96.29 285.112Z" fill="#26C2CD"/>
<path d="M113.399 288.459L107.735 291.725L96.29 285.112L101.945 281.846L113.399 288.459Z" fill="#4CE8F3"/>
<path d="M89.1318 308.01L86.8679 309.317L24.7236 273.435L26.9875 272.129L89.1318 308.01Z" fill="#4CE8F3"/>
<path d="M85.1943 291.519V297.12L86.8945 299.402V309.317L89.1494 308.019V298.096L90.8495 293.854V288.253L85.1943 291.519Z" fill="#26C2CD"/>
<path d="M102.294 294.866L96.6389 298.132L85.1943 291.519L90.8495 288.253L102.294 294.866Z" fill="#4CE8F3"/>
<path d="M78.0361 314.426L75.7722 315.724L13.6279 279.851L15.8918 278.544L78.0361 314.426Z" fill="#4CE8F3"/>
<path d="M74.0986 297.935V303.536L75.7898 305.809V315.724L78.0537 314.426V304.503L79.7538 300.261V294.66L74.0986 297.935Z" fill="#26C2CD"/>
<path d="M91.1984 301.272L85.5432 304.538L74.0986 297.935L79.7538 294.66L91.1984 301.272Z" fill="#4CE8F3"/>
<path d="M294.078 211.881L296.342 213.188L358.486 177.306L356.222 176L294.078 211.881Z" fill="#4CE8F3"/>
<path d="M298.024 195.39V200.991L296.324 203.264V213.188L294.06 211.881V201.967L292.36 197.725V192.124L298.024 195.39Z" fill="#26C2CD"/>
<path d="M280.916 198.728L286.571 202.003L298.025 195.39L292.361 192.124L280.916 198.728Z" fill="#4CE8F3"/>
<path d="M305.174 218.288L307.438 219.594L369.582 183.713L367.327 182.406L305.174 218.288Z" fill="#4CE8F3"/>
<path d="M309.12 201.797V207.398L307.42 209.68V219.594L305.156 218.288V208.374L303.456 204.132V198.531L309.12 201.797Z" fill="#26C2CD"/>
<path d="M292.012 205.143L297.676 208.409L309.12 201.797L303.456 198.531L292.012 205.143Z" fill="#4CE8F3"/>
<path d="M316.279 224.695L318.534 226.001L380.688 190.12L378.424 188.822L316.279 224.695Z" fill="#4CE8F3"/>
<path d="M320.216 208.204V213.805L318.516 216.087V226.001L316.261 224.704V214.78L314.561 210.539V204.938L320.216 208.204Z" fill="#26C2CD"/>
<path d="M303.107 211.55L308.772 214.816L320.216 208.204L314.561 204.938L303.107 211.55Z" fill="#4CE8F3"/>
<path d="M327.374 231.111L329.638 232.417L391.782 196.535L389.518 195.229L327.374 231.111Z" fill="#4CE8F3"/>
<path d="M331.311 214.619V220.221L329.611 222.494V232.417L327.356 231.111V221.187L325.656 216.955V211.353L331.311 214.619Z" fill="#26C2CD"/>
<path d="M314.212 217.957L319.867 221.223L331.312 214.619L325.656 211.353L314.212 217.957Z" fill="#4CE8F3"/>
<path d="M338.471 237.517L340.735 238.824L402.879 202.942L400.624 201.636L338.471 237.517Z" fill="#4CE8F3"/>
<path d="M342.416 221.026V226.628L340.716 228.9V238.824L338.452 237.517V227.594L336.752 223.362V217.76L342.416 221.026Z" fill="#26C2CD"/>
<path d="M325.308 224.364L330.963 227.639L342.416 221.026L336.752 217.76L325.308 224.364Z" fill="#4CE8F3"/>
<path d="M349.575 243.924L351.83 245.231L413.974 209.349L411.719 208.042L349.575 243.924Z" fill="#4CE8F3"/>
<path d="M353.512 227.433V233.034L351.812 235.307V245.231L349.557 243.924V234.01L347.848 229.768V224.167L353.512 227.433Z" fill="#26C2CD"/>
<path d="M336.403 230.78L342.067 234.046L353.512 227.433L347.848 224.167L336.403 230.78Z" fill="#4CE8F3"/>
<path d="M360.671 250.331L362.935 251.637L425.079 215.756L422.815 214.449L360.671 250.331Z" fill="#4CE8F3"/>
<path d="M364.607 233.84V239.441L362.907 241.723V251.637L360.652 250.331V240.417L358.952 236.175V230.574L364.607 233.84Z" fill="#26C2CD"/>
<path d="M347.508 237.186L353.163 240.452L364.608 233.84L358.952 230.574L347.508 237.186Z" fill="#4CE8F3"/>
<path d="M371.767 256.747L374.03 258.044L436.175 222.172L433.911 220.865L371.767 256.747Z" fill="#4CE8F3"/>
<path d="M375.703 240.256V245.857L374.012 248.13V258.044L371.748 256.747V246.823L370.048 242.582V236.981L375.703 240.256Z" fill="#26C2CD"/>
<path d="M358.604 243.593L364.259 246.859L375.703 240.256L370.048 236.981L358.604 243.593Z" fill="#4CE8F3"/>
<path d="M382.871 263.154L385.126 264.46L447.27 228.578L445.015 227.272L382.871 263.154Z" fill="#4CE8F3"/>
<path d="M386.808 246.662V252.264L385.108 254.537V264.46L382.853 263.154V253.23L381.144 248.998V243.396L386.808 246.662Z" fill="#26C2CD"/>
<path d="M369.699 250L375.363 253.266L386.808 246.662L381.144 243.396L369.699 250Z" fill="#4CE8F3"/>
<path d="M393.966 269.56L396.221 270.867L458.374 234.985L456.11 233.679L393.966 269.56Z" fill="#4CE8F3"/>
<path d="M397.903 253.069V258.671L396.203 260.943V270.867L393.948 269.56V259.646L392.248 255.405V249.803L397.903 253.069Z" fill="#26C2CD"/>
<path d="M380.804 256.407L386.459 259.682L397.903 253.069L392.248 249.803L380.804 256.407Z" fill="#4CE8F3"/>
<path d="M405.061 275.967L407.324 277.274L469.469 241.392L467.205 240.086L405.061 275.967Z" fill="#4CE8F3"/>
<path d="M408.998 259.476V265.077L407.298 267.359V277.274L405.043 275.967V266.053L403.343 261.811V256.21L408.998 259.476Z" fill="#26C2CD"/>
<path d="M391.898 262.823L397.554 266.089L408.998 259.476L403.343 256.21L391.898 262.823Z" fill="#4CE8F3"/>
<path d="M416.156 282.374L418.42 283.681L480.564 247.799L478.309 246.501L416.156 282.374Z" fill="#4CE8F3"/>
<path d="M420.103 265.892V271.484L418.402 273.766V283.681L416.139 282.383V272.46L414.438 268.218V262.617L420.103 265.892Z" fill="#26C2CD"/>
<path d="M402.994 269.229L408.649 272.495L420.103 265.892L414.439 262.617L402.994 269.229Z" fill="#4CE8F3"/>
<path d="M427.262 288.79L429.517 290.096L491.661 254.215L489.406 252.908L427.262 288.79Z" fill="#4CE8F3"/>
<path d="M431.198 272.299V277.9L429.498 280.173V290.096L427.234 288.79V278.866L425.534 274.634V269.024L431.198 272.299Z" fill="#26C2CD"/>
<path d="M414.09 275.636L419.754 278.902L431.199 272.299L425.534 269.024L414.09 275.636Z" fill="#4CE8F3"/>
<path d="M438.356 295.197L440.611 296.503L502.765 260.621L500.501 259.315L438.356 295.197Z" fill="#4CE8F3"/>
<path d="M442.294 278.705V284.307L440.594 286.58V296.503L438.339 295.197V285.273L436.639 281.041V275.439L442.294 278.705Z" fill="#26C2CD"/>
<path d="M425.194 282.043L430.85 285.318L442.294 278.705L436.639 275.439L425.194 282.043Z" fill="#4CE8F3"/>
<path d="M449.453 301.603L451.717 302.91L513.861 267.028L511.597 265.722L449.453 301.603Z" fill="#4CE8F3"/>
<path d="M453.39 285.112V290.714L451.689 292.987V302.91L449.435 301.604V291.689L447.734 287.448V281.846L453.39 285.112Z" fill="#26C2CD"/>
<path d="M436.29 288.459L441.945 291.725L453.39 285.112L447.735 281.846L436.29 288.459Z" fill="#4CE8F3"/>
<path d="M460.549 308.01L462.813 309.317L524.957 273.435L522.693 272.129L460.549 308.01Z" fill="#4CE8F3"/>
<path d="M464.494 291.519V297.12L462.794 299.402V309.317L460.53 308.019V298.096L458.83 293.854V288.253L464.494 291.519Z" fill="#26C2CD"/>
<path d="M447.386 294.866L453.041 298.132L464.494 291.519L458.83 288.253L447.386 294.866Z" fill="#4CE8F3"/>
<path d="M471.653 314.426L473.908 315.724L536.053 279.851L533.798 278.544L471.653 314.426Z" fill="#4CE8F3"/>
<path d="M475.59 297.935V303.536L473.89 305.809V315.724L471.635 314.426V304.503L469.926 300.261V294.66L475.59 297.935Z" fill="#26C2CD"/>
<path d="M458.481 301.272L464.146 304.538L475.59 297.935L469.926 294.66L458.481 301.272Z" fill="#4CE8F3"/>
<path d="M482.39 307.804C482.39 306.605 481.603 305.406 480.028 304.494L282.124 190.236C278.974 188.419 273.811 188.41 270.652 190.236L72.748 304.494C71.1732 305.406 70.3857 306.605 70.3857 307.804V326.909C70.3857 328.108 71.1732 329.307 72.748 330.219L270.652 444.477C273.802 446.294 278.965 446.303 282.124 444.477L480.028 330.21C481.603 329.298 482.39 328.099 482.39 326.9V307.804Z" fill="url(#paint1_linear_464_2600)"/>
<path d="M305.531 434.348L299.876 437.614L288.432 431.01L294.087 427.735L305.531 434.348Z" fill="#4CE8F3"/>
<path d="M299.876 437.614V443.215L301.576 445.497V455.412L303.831 454.105V444.191L305.531 439.949V434.348L299.876 437.614Z" fill="#26C2CD"/>
<path d="M365.984 489.978L363.721 491.284L301.576 455.403L303.831 454.096L365.984 489.978Z" fill="#4CE8F3"/>
<path d="M316.636 427.941L310.981 431.207L299.527 424.595L305.191 421.329L316.636 427.941Z" fill="#4CE8F3"/>
<path d="M310.981 431.207L310.972 436.809L312.672 439.082V449.005L314.936 447.698V437.775L316.636 433.543V427.941L310.981 431.207Z" fill="#26C2CD"/>
<path d="M377.08 483.562L374.816 484.878L312.672 448.996L314.936 447.69L377.08 483.562Z" fill="#4CE8F3"/>
<path d="M327.732 421.525L322.076 424.791L310.632 418.188L316.287 414.922L327.732 421.525Z" fill="#4CE8F3"/>
<path d="M322.076 424.791V430.393L323.776 432.675V442.589L326.031 441.283V431.368L327.731 427.127V421.525L322.076 424.791Z" fill="#26C2CD"/>
<path d="M388.185 477.156L385.921 478.462L323.776 442.58L326.031 441.274L388.185 477.156Z" fill="#4CE8F3"/>
<path d="M338.836 415.119L333.172 418.385L321.728 411.772L327.392 408.506L338.836 415.119Z" fill="#4CE8F3"/>
<path d="M333.172 418.385V423.986L334.872 426.259V436.173L337.136 434.876V424.953L338.836 420.72V415.119L333.172 418.385Z" fill="#26C2CD"/>
<path d="M399.28 470.74L397.016 472.055L334.872 436.173L337.136 434.867L399.28 470.74Z" fill="#4CE8F3"/>
<path d="M349.932 408.703L344.277 411.969L332.832 405.365L338.487 402.09L349.932 408.703Z" fill="#4CE8F3"/>
<path d="M344.276 411.969V417.57L345.976 419.843V429.767L348.231 428.46V418.546L349.932 414.304V408.703L344.276 411.969Z" fill="#26C2CD"/>
<path d="M410.385 464.333L408.121 465.639L345.977 429.758L348.231 428.451L410.385 464.333Z" fill="#4CE8F3"/>
<path d="M361.036 402.296L355.372 405.562L343.928 398.949L349.592 395.683L361.036 402.296Z" fill="#4CE8F3"/>
<path d="M355.372 405.562V411.164L357.072 413.436V423.36L359.336 422.053V412.13L361.036 407.898V402.296L355.372 405.562Z" fill="#26C2CD"/>
<path d="M421.48 457.917L419.217 459.224L357.072 423.351L359.336 422.044L421.48 457.917Z" fill="#4CE8F3"/>
<path d="M372.132 395.88L366.477 399.146L355.032 392.543L360.687 389.268L372.132 395.88Z" fill="#4CE8F3"/>
<path d="M366.477 399.146V404.748L368.177 407.021V416.944L370.432 415.638V405.723L372.132 401.482V395.88L366.477 399.146Z" fill="#26C2CD"/>
<path d="M432.585 451.51L430.321 452.817L368.177 416.935L370.432 415.629L432.585 451.51Z" fill="#4CE8F3"/>
<path d="M383.237 389.473L377.573 392.74L366.128 386.127L371.792 382.861L383.237 389.473Z" fill="#4CE8F3"/>
<path d="M377.572 392.74V398.341L379.272 400.614V410.537L381.536 409.231V399.307L383.236 395.075V389.474L377.572 392.74Z" fill="#26C2CD"/>
<path d="M443.681 445.104L441.417 446.401L379.272 410.528L381.536 409.222L443.681 445.104Z" fill="#4CE8F3"/>
<path d="M394.332 383.058L388.677 386.324L377.232 379.72L382.888 376.445L394.332 383.058Z" fill="#4CE8F3"/>
<path d="M388.677 386.324V391.925L390.377 394.198V404.121L392.632 402.815V392.901L394.332 388.659V383.058L388.677 386.324Z" fill="#26C2CD"/>
<path d="M454.785 438.688L452.521 439.994L390.377 404.112L392.632 402.806L454.785 438.688Z" fill="#4CE8F3"/>
<path d="M405.437 376.642L399.773 379.917L388.328 373.304L393.992 370.038L405.437 376.642Z" fill="#4CE8F3"/>
<path d="M399.772 379.917V385.518L401.473 387.791V397.706L403.736 396.408V386.485L405.437 382.252V376.642L399.772 379.917Z" fill="#26C2CD"/>
<path d="M465.881 432.272L463.626 433.578L401.473 397.697L403.737 396.399L465.881 432.272Z" fill="#4CE8F3"/>
<path d="M416.532 370.235L410.877 373.501L399.433 366.897L405.088 363.622L416.532 370.235Z" fill="#4CE8F3"/>
<path d="M410.877 373.501V379.103L412.577 381.375V391.299L414.832 389.992V380.078L416.532 375.837V370.235L410.877 373.501Z" fill="#26C2CD"/>
<path d="M476.985 425.865L474.722 427.172L412.577 391.29L414.832 389.984L476.985 425.865Z" fill="#4CE8F3"/>
<path d="M427.637 363.819L421.973 367.094L410.528 360.482L416.192 357.216L427.637 363.819Z" fill="#4CE8F3"/>
<path d="M421.973 367.094V372.696L423.673 374.969V384.883L425.937 383.586V373.662L427.637 369.43V363.819L421.973 367.094Z" fill="#26C2CD"/>
<path d="M488.081 419.45L485.826 420.756L423.673 384.874L425.937 383.577L488.081 419.45Z" fill="#4CE8F3"/>
<path d="M438.733 357.413L433.077 360.679L421.633 354.075L427.288 350.8L438.733 357.413Z" fill="#4CE8F3"/>
<path d="M433.077 360.679V366.28L434.777 368.553V378.476L437.032 377.17V367.255L438.732 363.014V357.412L433.077 360.679Z" fill="#26C2CD"/>
<path d="M499.185 413.043L496.922 414.349L434.777 378.467L437.041 377.161L499.185 413.043Z" fill="#4CE8F3"/>
<path d="M449.837 350.997L444.173 354.272L432.729 347.659L438.393 344.393L449.837 350.997Z" fill="#4CE8F3"/>
<path d="M444.173 354.272V359.873L445.873 362.146V372.069L448.137 370.763V360.84L449.837 356.607V350.997L444.173 354.272Z" fill="#26C2CD"/>
<path d="M510.281 406.627L508.017 407.933L445.873 372.052L448.137 370.754L510.281 406.627Z" fill="#4CE8F3"/>
<path d="M460.933 344.59L455.278 347.856L443.833 341.252L449.488 337.977L460.933 344.59Z" fill="#4CE8F3"/>
<path d="M455.277 347.856V353.457L456.978 355.73V365.654L459.232 364.347V354.433L460.933 350.191V344.59L455.277 347.856Z" fill="#26C2CD"/>
<path d="M521.386 400.22L519.122 401.527L456.978 365.645L459.232 364.338L521.386 400.22Z" fill="#4CE8F3"/>
<path d="M472.037 338.174L466.373 341.449L454.929 334.837L460.593 331.57L472.037 338.174Z" fill="#4CE8F3"/>
<path d="M466.373 341.449V347.051L468.073 349.324V359.238L470.337 357.94V348.017L472.037 343.776V338.174L466.373 341.449Z" fill="#26C2CD"/>
<path d="M532.481 393.804L530.218 395.111L468.073 359.229L470.337 357.932L532.481 393.804Z" fill="#4CE8F3"/>
<path d="M483.133 331.767L477.478 335.033L466.033 328.43L471.688 325.155L483.133 331.767Z" fill="#4CE8F3"/>
<path d="M477.478 335.033V340.635L479.178 342.908V352.831L481.433 351.525V341.61L483.133 337.369V331.767L477.478 335.033Z" fill="#26C2CD"/>
<path d="M543.586 387.398L541.322 388.704L479.178 352.822L481.433 351.516L543.586 387.398Z" fill="#4CE8F3"/>
<path d="M248.237 434.348L253.901 437.614L265.346 431.01L259.682 427.735L248.237 434.348Z" fill="#4CE8F3"/>
<path d="M253.901 437.614V443.215L252.201 445.497V455.412L249.937 454.105V444.191L248.237 439.949V434.348L253.901 437.614Z" fill="#26C2CD"/>
<path d="M187.793 489.978L190.057 491.284L252.201 455.403L249.937 454.096L187.793 489.978Z" fill="#4CE8F3"/>
<path d="M237.142 427.941L242.797 431.207L254.241 424.595L248.586 421.329L237.142 427.941Z" fill="#4CE8F3"/>
<path d="M242.797 431.207V436.809L241.097 439.082V449.005L238.842 447.698V437.775L237.142 433.543V427.941L242.797 431.207Z" fill="#26C2CD"/>
<path d="M176.688 483.562L178.952 484.878L241.097 448.996L238.842 447.69L176.688 483.562Z" fill="#4CE8F3"/>
<path d="M226.037 421.525L231.692 424.791L243.146 418.188L237.482 414.922L226.037 421.525Z" fill="#4CE8F3"/>
<path d="M231.692 424.791L231.701 430.393L230.001 432.675V442.589L227.737 441.283V431.368L226.037 427.127V421.525L231.692 424.791Z" fill="#26C2CD"/>
<path d="M165.593 477.156L167.857 478.462L230.001 442.58L227.737 441.274L165.593 477.156Z" fill="#4CE8F3"/>
<path d="M214.941 415.119L220.597 418.385L232.041 411.772L226.386 408.506L214.941 415.119Z" fill="#4CE8F3"/>
<path d="M220.597 418.385V423.986L218.896 426.259V436.173L216.642 434.876V424.953L214.941 420.72V415.119L220.597 418.385Z" fill="#26C2CD"/>
<path d="M154.488 470.74L156.752 472.055L218.896 436.173L216.642 434.867L154.488 470.74Z" fill="#4CE8F3"/>
<path d="M203.837 408.703L209.501 411.969L220.946 405.365L215.281 402.09L203.837 408.703Z" fill="#4CE8F3"/>
<path d="M209.501 411.969V417.57L207.801 419.843V429.767L205.537 428.46V418.546L203.837 414.304V408.703L209.501 411.969Z" fill="#26C2CD"/>
<path d="M143.393 464.333L145.656 465.639L207.801 429.758L205.537 428.451L143.393 464.333Z" fill="#4CE8F3"/>
<path d="M192.741 402.296L198.396 405.562L209.841 398.949L204.186 395.683L192.741 402.296Z" fill="#4CE8F3"/>
<path d="M198.396 405.562V411.164L196.696 413.436V423.36L194.441 422.053V412.13L192.741 407.898V402.296L198.396 405.562Z" fill="#26C2CD"/>
<path d="M132.288 457.917L134.552 459.224L196.696 423.351L194.441 422.044L132.288 457.917Z" fill="#4CE8F3"/>
<path d="M181.637 395.88L187.301 399.146L198.745 392.543L193.081 389.268L181.637 395.88Z" fill="#4CE8F3"/>
<path d="M187.301 399.146V404.748L185.601 407.021V416.944L183.337 415.638V405.723L181.637 401.482V395.88L187.301 399.146Z" fill="#26C2CD"/>
<path d="M121.192 451.51L123.447 452.817L185.601 416.935L183.337 415.629L121.192 451.51Z" fill="#4CE8F3"/>
<path d="M170.541 389.473L176.196 392.74L187.641 386.127L181.986 382.861L170.541 389.473Z" fill="#4CE8F3"/>
<path d="M176.196 392.74V398.341L174.496 400.614V410.537L172.241 409.231V399.307L170.541 395.075V389.474L176.196 392.74Z" fill="#26C2CD"/>
<path d="M110.088 445.104L112.352 446.401L174.496 410.528L172.241 409.222L110.088 445.104Z" fill="#4CE8F3"/>
<path d="M159.437 383.058L165.101 386.324L176.545 379.72L170.881 376.445L159.437 383.058Z" fill="#4CE8F3"/>
<path d="M165.101 386.324V391.925L163.401 394.198V404.121L161.137 402.815V392.901L159.437 388.659V383.058L165.101 386.324Z" fill="#26C2CD"/>
<path d="M98.9922 438.688L101.256 439.994L163.4 404.112L161.136 402.806L98.9922 438.688Z" fill="#4CE8F3"/>
<path d="M148.341 376.642L153.996 379.917L165.441 373.304L159.785 370.038L148.341 376.642Z" fill="#4CE8F3"/>
<path d="M153.996 379.917V385.518L152.296 387.791V397.706L150.041 396.408V386.485L148.341 382.252V376.642L153.996 379.917Z" fill="#26C2CD"/>
<path d="M87.8877 432.272L90.1516 433.578L152.296 397.697L150.041 396.399L87.8877 432.272Z" fill="#4CE8F3"/>
<path d="M137.236 370.235L142.892 373.501L154.345 366.897L148.681 363.622L137.236 370.235Z" fill="#4CE8F3"/>
<path d="M142.891 373.501L142.9 379.103L141.2 381.375V391.299L138.936 389.992V380.078L137.236 375.837V370.235L142.891 373.501Z" fill="#26C2CD"/>
<path d="M76.792 425.865L79.0469 427.172L141.2 391.29L138.936 389.984L76.792 425.865Z" fill="#4CE8F3"/>
<path d="M126.141 363.819L131.796 367.094L143.24 360.482L137.585 357.216L126.141 363.819Z" fill="#4CE8F3"/>
<path d="M131.796 367.094V372.696L130.096 374.969V384.883L127.841 383.586V373.662L126.141 369.43V363.819L131.796 367.094Z" fill="#26C2CD"/>
<path d="M65.6875 419.45L67.9514 420.756L130.096 384.874L127.841 383.577L65.6875 419.45Z" fill="#4CE8F3"/>
<path d="M115.036 357.413L120.7 360.679L132.145 354.075L126.481 350.8L115.036 357.413Z" fill="#4CE8F3"/>
<path d="M120.7 360.679V366.28L119 368.553V378.476L116.736 377.17V367.255L115.036 363.014V357.412L120.7 360.679Z" fill="#26C2CD"/>
<path d="M54.5918 413.043L56.8467 414.349L119 378.467L116.736 377.161L54.5918 413.043Z" fill="#4CE8F3"/>
<path d="M103.94 350.997L109.596 354.272L121.04 347.659L115.385 344.393L103.94 350.997Z" fill="#4CE8F3"/>
<path d="M109.596 354.272V359.873L107.895 362.146V372.069L105.641 370.763V360.84L103.94 356.607V350.997L109.596 354.272Z" fill="#26C2CD"/>
<path d="M43.4873 406.627L45.7512 407.933L107.895 372.052L105.641 370.754L43.4873 406.627Z" fill="#4CE8F3"/>
<path d="M92.8359 344.59L98.5001 347.856L109.945 341.252L104.281 337.977L92.8359 344.59Z" fill="#4CE8F3"/>
<path d="M98.5001 347.856V353.457L96.7999 355.73V365.654L94.5361 364.347V354.433L92.8359 350.191V344.59L98.5001 347.856Z" fill="#26C2CD"/>
<path d="M32.3916 400.22L34.6555 401.527L96.7998 365.645L94.5359 364.338L32.3916 400.22Z" fill="#4CE8F3"/>
<path d="M81.7402 338.174L87.3954 341.449L98.84 334.837L93.1848 331.57L81.7402 338.174Z" fill="#4CE8F3"/>
<path d="M87.3954 341.449V347.051L85.6953 349.324V359.238L83.4404 357.94V348.017L81.7402 343.776V338.174L87.3954 341.449Z" fill="#26C2CD"/>
<path d="M21.2871 393.804L23.551 395.111L85.6953 359.229L83.4404 357.932L21.2871 393.804Z" fill="#4CE8F3"/>
<path d="M70.6357 331.767L76.2999 335.033L87.7444 328.43L82.0803 325.155L70.6357 331.767Z" fill="#4CE8F3"/>
<path d="M76.2999 335.033V340.635L74.5997 342.908V352.831L72.3359 351.525V341.61L70.6357 337.369V331.767L76.2999 335.033Z" fill="#26C2CD"/>
<path d="M10.1914 387.398L12.4463 388.704L74.5996 352.822L72.3357 351.516L10.1914 387.398Z" fill="#4CE8F3"/>
<path d="M480.028 304.494C483.178 306.31 483.178 309.29 480.028 311.115L282.124 425.382C278.974 427.207 273.811 427.199 270.652 425.382L72.748 311.115C69.5983 309.29 69.5983 306.31 72.748 304.494L270.652 190.227C273.802 188.402 278.965 188.41 282.124 190.227L480.028 304.494Z" fill="url(#paint2_linear_464_2600)"/>
<path opacity="0.3" d="M449.846 305.89C454.579 308.619 454.579 313.093 449.846 315.822L289.514 408.39C284.781 411.119 277.041 411.119 272.307 408.39L111.985 315.822C107.251 313.093 107.251 308.619 111.985 305.89L272.316 213.322C277.05 210.593 284.79 210.593 289.523 213.322L449.846 305.89Z" fill="#0A208E"/>
<path d="M445.319 289.595L284.987 197.027C280.263 194.298 272.513 194.298 267.789 197.027L107.457 289.595C105.095 290.964 103.914 292.763 103.914 294.561V307.957C103.977 309.701 105.167 311.437 107.457 312.762L267.789 405.329C272.513 408.059 280.263 408.059 284.987 405.329L445.319 312.762C447.815 311.321 448.996 309.388 448.853 307.491L448.862 294.651C448.916 292.834 447.726 290.991 445.319 289.595Z" fill="url(#paint3_linear_464_2600)"/>
<path d="M445.318 289.595C450.052 292.324 450.052 296.798 445.318 299.528L284.996 392.095C280.262 394.824 272.522 394.824 267.797 392.095L107.457 299.528C102.723 296.798 102.732 292.324 107.457 289.595L267.788 197.027C272.522 194.298 280.262 194.298 284.987 197.027L445.318 289.595Z" fill="url(#paint4_linear_464_2600)"/>
<path opacity="0.3" d="M276.388 377.787C272.271 377.787 268.334 376.821 265.301 375.076L141.898 303.832C138.006 301.586 135.867 298.293 135.867 294.561C135.867 290.83 138.006 287.537 141.898 285.291L265.292 214.047C268.325 212.293 272.263 211.335 276.379 211.335C280.495 211.335 284.432 212.302 287.465 214.047L410.868 285.291C414.76 287.537 416.899 290.83 416.899 294.561C416.899 298.293 414.76 301.586 410.868 303.832L287.474 375.076C284.441 376.83 280.504 377.787 276.388 377.787Z" fill="#4CEAF5"/>
<path opacity="0.5" d="M276.388 376.132C272.558 376.132 268.917 375.246 266.134 373.644L142.74 302.4C139.384 300.467 137.541 297.684 137.541 294.57C137.541 291.456 139.393 288.674 142.74 286.741L266.134 215.496C268.917 213.886 272.558 213.009 276.388 213.009C280.218 213.009 283.86 213.895 286.643 215.496L410.045 286.741C413.401 288.682 415.244 291.456 415.244 294.579C415.244 297.693 413.392 300.476 410.045 302.409L286.652 373.653C283.869 375.246 280.218 376.132 276.388 376.132Z" fill="#4CEAF5"/>
<path d="M276.388 374.477C272.845 374.477 269.498 373.671 266.957 372.204L143.563 300.959C140.744 299.331 139.188 297.058 139.188 294.561C139.188 292.065 140.744 289.792 143.563 288.163L266.957 216.919C269.489 215.451 272.845 214.646 276.388 214.646C279.932 214.646 283.278 215.451 285.819 216.919L409.222 288.163C412.041 289.792 413.598 292.065 413.598 294.561C413.598 297.058 412.041 299.331 409.222 300.959L285.828 372.204C283.287 373.671 279.932 374.477 276.388 374.477Z" fill="#4CEAF5"/>
<path d="M408.39 289.595C413.123 292.324 413.123 296.798 408.39 299.528L284.996 370.772C280.262 373.501 272.522 373.501 267.798 370.772L144.395 299.528C139.661 296.798 139.661 292.324 144.395 289.595L267.789 218.351C272.522 215.622 280.262 215.622 284.987 218.351L408.39 289.595Z" fill="#D4FFFF"/>
<path d="M470.892 305.514C472.359 306.364 472.359 307.742 470.892 308.592C469.424 309.442 467.035 309.442 465.567 308.592C464.1 307.742 464.1 306.364 465.567 305.514C467.035 304.664 469.415 304.664 470.892 305.514Z" fill="#0A208E"/>
<path d="M86.9755 306.91C88.443 307.76 88.443 309.138 86.9755 309.988C85.508 310.838 83.1189 310.838 81.6514 309.988C80.1839 309.138 80.1839 307.76 81.6514 306.91C83.1278 306.069 85.508 306.06 86.9755 306.91Z" fill="#0A208E"/>
<path d="M277.722 417.042C279.189 417.893 279.189 419.27 277.722 420.112C276.254 420.962 273.865 420.962 272.397 420.112C270.93 419.262 270.93 417.884 272.397 417.042C273.865 416.192 276.254 416.192 277.722 417.042Z" fill="#0A208E"/>
<path d="M392.203 214.243C392.203 215.639 391.067 216.767 389.671 216.767C388.275 216.767 387.147 215.639 387.147 214.243C387.147 212.848 388.275 211.72 389.671 211.72C391.067 211.711 392.203 212.848 392.203 214.243Z" fill="#48D8F5"/>
<path d="M381.197 135.456C381.197 136.163 380.624 136.726 379.926 136.726C379.228 136.726 378.646 136.154 378.646 135.456C378.646 134.758 379.219 134.185 379.926 134.185C380.624 134.176 381.197 134.749 381.197 135.456Z" fill="#48D8F5"/>
<path d="M399.137 80.9889C399.137 81.3378 398.851 81.6152 398.511 81.6152C398.171 81.6152 397.885 81.3378 397.885 80.9889C397.885 80.6488 398.171 80.3625 398.511 80.3625C398.86 80.3536 399.137 80.6399 399.137 80.9889Z" fill="#48D8F5"/>
<path d="M376.615 184.912C376.615 185.261 376.338 185.547 375.98 185.547C375.631 185.547 375.354 185.27 375.354 184.912C375.354 184.563 375.64 184.285 375.98 184.285C376.338 184.285 376.615 184.572 376.615 184.912Z" fill="#48D8F5"/>
<path d="M401.017 117.202C401.017 117.551 400.73 117.828 400.39 117.828C400.041 117.828 399.755 117.551 399.755 117.202C399.755 116.853 400.041 116.566 400.39 116.566C400.73 116.566 401.017 116.853 401.017 117.202Z" fill="#48D8F5"/>
<path d="M393.473 162.738C393.473 163.436 392.909 164.009 392.202 164.009C391.504 164.009 390.932 163.436 390.932 162.738C390.932 162.031 391.504 161.468 392.202 161.468C392.909 161.459 393.473 162.031 393.473 162.738Z" fill="#48D8F5"/>
<path d="M162.032 120.173C162.148 121.559 161.11 122.776 159.723 122.902C158.336 123.018 157.111 121.98 156.994 120.593C156.878 119.206 157.925 117.98 159.303 117.864C160.69 117.748 161.916 118.777 162.032 120.173Z" fill="#48D8F5"/>
<path d="M185.61 156.287C185.726 157.674 184.697 158.9 183.301 159.007C181.915 159.123 180.689 158.094 180.581 156.699C180.465 155.312 181.494 154.086 182.89 153.969C184.277 153.862 185.503 154.9 185.61 156.287Z" fill="#48D8F5"/>
<path d="M171.043 83.2439C171.096 83.9418 170.568 84.5592 169.87 84.6129C169.164 84.6755 168.555 84.1476 168.492 83.4497C168.43 82.7517 168.949 82.1343 169.656 82.0717C170.363 82.0269 170.98 82.5459 171.043 83.2439Z" fill="#48D8F5"/>
<path d="M145.836 91.1451C145.872 91.494 145.612 91.7983 145.263 91.8251C144.914 91.852 144.61 91.5925 144.583 91.2435C144.556 90.9035 144.807 90.5903 145.156 90.5634C145.505 90.5366 145.809 90.7961 145.836 91.1451Z" fill="#48D8F5"/>
<path d="M178.121 176.885C178.148 177.234 177.888 177.539 177.548 177.565C177.199 177.601 176.895 177.342 176.868 176.993C176.841 176.644 177.101 176.339 177.432 176.313C177.79 176.286 178.094 176.545 178.121 176.885Z" fill="#48D8F5"/>
<path d="M161.28 157.021C161.343 157.728 160.815 158.336 160.117 158.399C159.419 158.461 158.802 157.942 158.748 157.235C158.686 156.537 159.214 155.92 159.911 155.857C160.6 155.795 161.227 156.323 161.28 157.021Z" fill="#48D8F5"/>
<path d="M172.179 199.479C172.233 200.186 171.714 200.804 171.007 200.857C170.309 200.911 169.691 200.392 169.638 199.694C169.584 198.996 170.103 198.379 170.801 198.316C171.499 198.262 172.116 198.781 172.179 199.479Z" fill="#48D8F5"/>
<path d="M158.283 218.637C158.336 219.344 157.808 219.952 157.119 220.015C156.412 220.069 155.804 219.559 155.741 218.852C155.679 218.154 156.207 217.536 156.905 217.483C157.612 217.411 158.229 217.939 158.283 218.637Z" fill="#48D8F5"/>
<path opacity="0.3" d="M413.589 7.5343H137.532V294.57H413.589V7.5343Z" fill="url(#paint5_linear_464_2600)"/>
<path d="M408.39 269.632L284.987 198.388C280.254 195.658 272.514 195.658 267.789 198.388L144.395 269.632C141.908 271.064 140.727 272.988 140.861 274.876L140.852 291.251C140.852 293.049 142.033 294.848 144.404 296.217L267.807 367.461C272.541 370.19 280.281 370.19 285.005 367.461L408.399 296.217C410.761 294.848 411.942 293.049 411.942 291.251V274.589C411.934 272.8 410.752 271.001 408.39 269.632Z" fill="url(#paint6_linear_464_2600)"/>
<path d="M408.39 269.632C413.123 272.361 413.123 276.835 408.39 279.564L284.996 350.809C280.262 353.538 272.522 353.538 267.798 350.809L144.395 279.564C139.661 276.835 139.661 272.361 144.395 269.632L267.789 198.388C272.522 195.658 280.262 195.658 284.987 198.388L408.39 269.632Z" fill="url(#paint7_linear_464_2600)"/>
<path d="M276.388 351.865C273.301 351.865 270.42 351.185 268.281 349.95L144.878 278.705C142.91 277.569 141.827 276.11 141.827 274.598C141.827 273.086 142.91 271.627 144.878 270.491L268.272 199.247C270.411 198.012 273.292 197.332 276.379 197.332C279.466 197.332 282.348 198.012 284.486 199.247L407.88 270.491C409.849 271.627 410.931 273.086 410.931 274.598C410.931 276.11 409.849 277.569 407.88 278.705L284.486 349.95C282.357 351.185 279.475 351.865 276.388 351.865Z" fill="url(#paint8_linear_464_2600)"/>
<path opacity="0.5" d="M167.266 125.819C165.226 125.819 163.57 127.474 163.57 129.514V258.805H170.952V129.505C170.952 127.465 169.306 125.819 167.266 125.819Z" fill="url(#paint9_linear_464_2600)"/>
<path opacity="0.5" d="M399.433 103.851C397.393 103.851 395.746 105.507 395.746 107.538V236.828H403.128V107.538C403.119 105.507 401.473 103.851 399.433 103.851Z" fill="url(#paint10_linear_464_2600)"/>
<path opacity="0.7" d="M344.957 143.473C343.892 143.473 343.024 144.341 343.024 145.406V257.633H346.89V145.406C346.89 144.341 346.031 143.473 344.957 143.473Z" fill="url(#paint11_linear_464_2600)"/>
<path opacity="0.7" d="M155.688 41.3043C154.623 41.3043 153.755 42.1723 153.755 43.2371V155.464H157.629V43.2371C157.629 42.1723 156.761 41.3043 155.688 41.3043Z" fill="url(#paint12_linear_464_2600)"/>
<path opacity="0.7" d="M331.311 25.4751C330.756 25.4751 330.291 25.9314 330.291 26.4862V140.35H332.322V26.4862C332.331 25.9225 331.875 25.4751 331.311 25.4751Z" fill="url(#paint13_linear_464_2600)"/>
<path opacity="0.7" d="M374.683 51.6572C374.379 51.6572 374.128 51.9078 374.128 52.212V114.168H375.229V52.212C375.238 51.8988 374.987 51.6572 374.683 51.6572Z" fill="url(#paint14_linear_464_2600)"/>
<path opacity="0.7" d="M313.343 92.4246C313.039 92.4246 312.788 92.6751 312.788 92.9793V154.936H313.889V92.9793C313.889 92.6751 313.647 92.4246 313.343 92.4246Z" fill="url(#paint15_linear_464_2600)"/>
<path opacity="0.7" d="M222.315 150.811C222.01 150.811 221.76 151.061 221.76 151.365V213.322H222.86V151.365C222.86 151.061 222.619 150.811 222.315 150.811Z" fill="url(#paint16_linear_464_2600)"/>
<path opacity="0.7" d="M236.291 202.897C235.987 202.897 235.736 203.148 235.736 203.452V265.409H236.837V203.452C236.846 203.148 236.595 202.897 236.291 202.897Z" fill="url(#paint17_linear_464_2600)"/>
<path opacity="0.7" d="M363.587 174.326C363.283 174.326 363.041 174.568 363.041 174.872V236.828H364.142V174.872C364.133 174.568 363.882 174.326 363.587 174.326Z" fill="url(#paint18_linear_464_2600)"/>
<path opacity="0.7" d="M192.196 161.745C191.632 161.745 191.185 162.193 191.185 162.756V276.62H193.207V162.756C193.207 162.193 192.759 161.745 192.196 161.745Z" fill="url(#paint19_linear_464_2600)"/>
<path opacity="0.3" d="M216.489 90.5633C216.489 92.344 215.049 93.7757 213.277 93.7757C211.505 93.7757 210.064 92.335 210.064 90.5633C210.064 88.7916 211.505 87.351 213.277 87.351C215.049 87.351 216.489 88.7916 216.489 90.5633Z" fill="#1ED6FE"/>
<path opacity="0.3" d="M215.335 90.5633C215.335 91.6997 214.413 92.6214 213.277 92.6214C212.14 92.6214 211.219 91.6997 211.219 90.5633C211.219 89.4269 212.14 88.5052 213.277 88.5052C214.413 88.5052 215.335 89.4269 215.335 90.5633Z" fill="#1ED6FE"/>
<path d="M214.646 90.5633C214.646 91.3149 214.029 91.9323 213.277 91.9323C212.526 91.9323 211.908 91.3149 211.908 90.5633C211.908 89.8027 212.526 89.1942 213.277 89.1942C214.029 89.1942 214.646 89.8116 214.646 90.5633Z" fill="#1ED6FE"/>
<path opacity="0.3" d="M363.086 114.168C363.086 118.052 359.936 121.201 356.053 121.201C352.178 121.201 349.028 118.052 349.028 114.168C349.028 110.285 352.178 107.135 356.053 107.135C359.936 107.135 363.086 110.285 363.086 114.168Z" fill="#1ED6FE"/>
<path opacity="0.3" d="M360.553 114.168C360.553 116.656 358.54 118.669 356.052 118.669C353.574 118.669 351.561 116.656 351.561 114.168C351.561 111.681 353.574 109.667 356.052 109.667C358.54 109.658 360.553 111.681 360.553 114.168Z" fill="#1ED6FE"/>
<path d="M359.059 114.168C359.059 115.824 357.708 117.166 356.052 117.166C354.406 117.166 353.055 115.824 353.055 114.168C353.055 112.513 354.406 111.171 356.052 111.171C357.708 111.162 359.059 112.513 359.059 114.168Z" fill="#1ED6FE"/>
<path opacity="0.3" d="M363.086 53.7242C363.086 57.6077 359.936 60.7574 356.053 60.7574C352.178 60.7574 349.028 57.6077 349.028 53.7242C349.028 49.8408 352.178 46.691 356.053 46.691C359.936 46.691 363.086 49.8318 363.086 53.7242Z" fill="#1ED6FE"/>
<path opacity="0.3" d="M360.553 53.7242C360.553 56.2117 358.54 58.2251 356.052 58.2251C353.574 58.2251 351.561 56.2117 351.561 53.7242C351.561 51.2366 353.574 49.2233 356.052 49.2233C358.54 49.2143 360.553 51.2366 360.553 53.7242Z" fill="#1ED6FE"/>
<path d="M359.059 53.7242C359.059 55.3796 357.708 56.7218 356.052 56.7218C354.406 56.7218 353.055 55.3796 353.055 53.7242C353.055 52.0688 354.406 50.7266 356.052 50.7266C357.708 50.7177 359.059 52.0688 359.059 53.7242Z" fill="#1ED6FE"/>
<path opacity="0.3" d="M183.023 46.691C183.023 50.5745 179.874 53.7242 175.981 53.7242C172.107 53.7242 168.957 50.5745 168.957 46.691C168.957 42.8076 172.107 39.6578 175.981 39.6578C179.874 39.6578 183.023 42.8076 183.023 46.691Z" fill="#1ED6FE"/>
<path opacity="0.3" d="M180.491 46.6911C180.491 49.1697 178.478 51.1919 175.981 51.1919C173.503 51.1919 171.489 49.1697 171.489 46.6911C171.489 44.2035 173.503 42.1902 175.981 42.1902C178.478 42.1902 180.491 44.2035 180.491 46.6911Z" fill="#1ED6FE"/>
<path d="M178.997 46.691C178.997 48.3464 177.646 49.6886 175.991 49.6886C174.344 49.6886 173.002 48.3464 173.002 46.691C173.002 45.0356 174.344 43.6844 175.991 43.6844C177.646 43.6934 178.997 45.0356 178.997 46.691Z" fill="#1ED6FE"/>
<path opacity="0.3" d="M207.211 43.6933C207.211 44.5076 206.549 45.1698 205.734 45.1698C204.92 45.1698 204.258 44.5076 204.258 43.6933C204.258 42.8791 204.92 42.2169 205.734 42.2169C206.549 42.2169 207.211 42.8791 207.211 43.6933Z" fill="#1ED6FE"/>
<path opacity="0.3" d="M206.683 43.6933C206.683 44.2123 206.262 44.6329 205.743 44.6329C205.224 44.6329 204.795 44.2123 204.795 43.6933C204.795 43.1744 205.215 42.7538 205.743 42.7538C206.253 42.7449 206.683 43.1744 206.683 43.6933Z" fill="#1ED6FE"/>
<path d="M206.36 43.6934C206.36 44.0424 206.083 44.3197 205.734 44.3197C205.385 44.3197 205.107 44.0334 205.107 43.6934C205.107 43.3444 205.385 43.067 205.734 43.067C206.083 43.067 206.36 43.3444 206.36 43.6934Z" fill="#1ED6FE"/>
<path opacity="0.3" d="M170.281 31.2019C170.281 32.1325 169.53 32.8752 168.599 32.8752C167.668 32.8752 166.926 32.1235 166.926 31.2019C166.926 30.2713 167.677 29.5197 168.599 29.5197C169.53 29.5197 170.281 30.2802 170.281 31.2019Z" fill="#1ED6FE"/>
<path opacity="0.3" d="M169.673 31.2019C169.673 31.7925 169.199 32.2757 168.599 32.2757C168.009 32.2757 167.525 31.7925 167.525 31.2019C167.525 30.6024 168.009 30.1282 168.599 30.1282C169.199 30.1282 169.673 30.6114 169.673 31.2019Z" fill="#1ED6FE"/>
<path d="M169.314 31.2019C169.314 31.5956 169.001 31.9178 168.599 31.9178C168.205 31.9178 167.883 31.5956 167.883 31.2019C167.883 30.8082 168.205 30.4861 168.599 30.4861C169.001 30.4861 169.314 30.8082 169.314 31.2019Z" fill="#1ED6FE"/>
<path opacity="0.3" d="M182.934 127.071C182.934 127.734 182.397 128.279 181.735 128.279C181.073 128.279 180.536 127.743 180.536 127.071C180.536 126.409 181.073 125.872 181.735 125.872C182.397 125.872 182.934 126.409 182.934 127.071Z" fill="#1ED6FE"/>
<path opacity="0.3" d="M182.505 127.071C182.505 127.501 182.156 127.841 181.735 127.841C181.315 127.841 180.966 127.501 180.966 127.071C180.966 126.642 181.315 126.302 181.735 126.302C182.156 126.302 182.505 126.651 182.505 127.071Z" fill="#1ED6FE"/>
<path d="M182.245 127.071C182.245 127.358 182.012 127.581 181.735 127.581C181.448 127.581 181.216 127.358 181.216 127.071C181.216 126.794 181.448 126.561 181.735 126.561C182.012 126.561 182.245 126.794 182.245 127.071Z" fill="#1ED6FE"/>
<path opacity="0.3" d="M211.023 169.951C211.023 170.872 210.271 171.624 209.349 171.624C208.419 171.624 207.667 170.872 207.667 169.951C207.667 169.02 208.419 168.277 209.349 168.277C210.271 168.268 211.023 169.02 211.023 169.951Z" fill="#1ED6FE"/>
<path opacity="0.3" d="M210.423 169.951C210.423 170.541 209.94 171.024 209.349 171.024C208.75 171.024 208.275 170.541 208.275 169.951C208.275 169.36 208.759 168.877 209.349 168.877C209.94 168.868 210.423 169.351 210.423 169.951Z" fill="#1ED6FE"/>
<path d="M210.065 169.951C210.065 170.344 209.743 170.666 209.35 170.666C208.956 170.666 208.634 170.344 208.634 169.951C208.634 169.557 208.956 169.235 209.35 169.235C209.743 169.235 210.065 169.548 210.065 169.951Z" fill="#1ED6FE"/>
<path opacity="0.3" d="M331.974 136.726C331.974 137.648 331.222 138.4 330.3 138.4C329.379 138.4 328.618 137.648 328.618 136.726C328.618 135.796 329.37 135.053 330.3 135.053C331.222 135.053 331.974 135.805 331.974 136.726Z" fill="#1ED6FE"/>
<path opacity="0.3" d="M331.374 136.726C331.374 137.317 330.891 137.8 330.3 137.8C329.701 137.8 329.227 137.317 329.227 136.726C329.227 136.136 329.701 135.653 330.3 135.653C330.891 135.653 331.374 136.136 331.374 136.726Z" fill="#1ED6FE"/>
<path d="M331.017 136.726C331.017 137.12 330.695 137.442 330.301 137.442C329.907 137.442 329.585 137.12 329.585 136.726C329.585 136.333 329.907 136.01 330.301 136.01C330.695 136.01 331.017 136.333 331.017 136.726Z" fill="#1ED6FE"/>
<path opacity="0.3" d="M160.904 183.963C160.904 184.894 160.153 185.646 159.231 185.646C158.309 185.646 157.549 184.894 157.549 183.963C157.549 183.042 158.3 182.29 159.231 182.29C160.153 182.29 160.904 183.042 160.904 183.963Z" fill="#1ED6FE"/>
<path opacity="0.3" d="M160.305 183.963C160.305 184.554 159.831 185.037 159.231 185.037C158.631 185.037 158.157 184.554 158.157 183.963C158.157 183.373 158.631 182.89 159.231 182.89C159.822 182.89 160.305 183.373 160.305 183.963Z" fill="#1ED6FE"/>
<path d="M159.947 183.963C159.947 184.357 159.625 184.679 159.231 184.679C158.838 184.679 158.516 184.357 158.516 183.963C158.516 183.57 158.838 183.247 159.231 183.247C159.625 183.247 159.947 183.57 159.947 183.963Z" fill="#1ED6FE"/>
<path opacity="0.2" d="M324.143 229.223H271.833V27.2468L324.143 45.644V229.223Z" fill="url(#paint20_linear_464_2600)"/>
<path d="M300.708 8.08907C294.015 4.2235 287.957 3.88348 283.591 6.44262L278.624 9.35075C274.428 11.9367 271.842 17.2608 271.842 24.7862C271.842 40.1589 282.633 58.8514 295.948 66.5289C302.614 70.3765 308.645 70.7345 313.012 68.2111L317.924 65.3477C322.193 62.7886 324.823 57.4287 324.823 49.8407C324.805 34.468 314.014 15.7755 300.708 8.08907Z" fill="url(#paint21_linear_464_2600)"/>
<path d="M320.045 52.6146C320.045 67.9874 309.254 74.2153 295.939 66.5289C282.624 58.8425 271.833 40.15 271.833 24.7862C271.833 9.41338 282.624 3.18552 295.939 10.8719C309.254 18.5493 320.045 37.2419 320.045 52.6146Z" fill="url(#paint22_linear_464_2600)"/>
<path opacity="0.15" d="M275.645 41.9843L308.932 22.7639C307.205 20.4821 305.326 18.3614 303.33 16.4734L272.987 33.9848C273.641 36.6692 274.535 39.3536 275.645 41.9843Z" fill="#1ED6FE"/>
<path opacity="0.15" d="M293.424 64.9272L319.911 49.635C319.785 48.1854 319.58 46.7179 319.284 45.2325L289.926 62.1802C291.062 63.1734 292.225 64.0951 293.424 64.9272Z" fill="#1ED6FE"/>
<path opacity="0.15" d="M282.67 54.2611L316.064 34.978C314.578 31.5241 312.726 28.1685 310.596 25.0457L276.809 44.5524C278.437 47.9617 280.424 51.2456 282.67 54.2611Z" fill="#1ED6FE"/>
<path d="M316.636 50.646C316.636 63.8444 307.366 69.1954 295.939 62.6006C284.503 55.997 275.242 39.9531 275.242 26.7457C275.242 13.5473 284.512 8.19641 295.939 14.7911C307.375 21.3948 316.636 37.4476 316.636 50.646Z" fill="#3F40C9"/>
<path d="M316.484 49.9213C316.484 62.6902 307.518 67.8711 296.458 61.4822C285.399 55.1022 276.433 39.5684 276.433 26.7995C276.433 14.0306 285.399 8.85862 296.458 15.2386C307.518 21.6275 316.484 37.1524 316.484 49.9213Z" fill="url(#paint23_linear_464_2600)"/>
<g opacity="0.5">
<path opacity="0.5" d="M316.968 37.242C317.093 37.573 317.209 37.8952 317.326 38.2263L322.095 35.4702C321.979 35.1392 321.862 34.817 321.737 34.486L316.968 37.242Z" fill="url(#paint24_linear_464_2600)"/>
<path opacity="0.5" d="M319.169 44.6688C319.241 45.0268 319.312 45.3847 319.384 45.7426L324.153 42.9866C324.09 42.6287 324.019 42.2708 323.938 41.9128L319.169 44.6688Z" fill="url(#paint25_linear_464_2600)"/>
<path opacity="0.5" d="M318.561 42.1185C318.65 42.4675 318.739 42.8076 318.829 43.1565L323.598 40.4005C323.509 40.0515 323.428 39.7115 323.339 39.3625L318.561 42.1185Z" fill="url(#paint26_linear_464_2600)"/>
<path opacity="0.5" d="M313.827 30.3609C313.988 30.6651 314.149 30.9693 314.31 31.2736L319.089 28.5176C318.928 28.2133 318.775 27.9091 318.605 27.6049L313.827 30.3609Z" fill="url(#paint27_linear_464_2600)"/>
<path opacity="0.5" d="M314.963 32.5979C315.115 32.9111 315.258 33.2153 315.41 33.5285L320.18 30.7725C320.036 30.4593 319.884 30.1462 319.732 29.8419L314.963 32.5979Z" fill="url(#paint28_linear_464_2600)"/>
<path opacity="0.5" d="M316.019 34.8886C316.162 35.2107 316.287 35.5239 316.421 35.846L321.19 33.09C321.056 32.7679 320.922 32.4547 320.788 32.1326L316.019 34.8886Z" fill="url(#paint29_linear_464_2600)"/>
<path opacity="0.5" d="M319.938 50.0198C319.965 50.4046 319.992 50.7893 320.01 51.1651L324.77 48.4181C324.753 48.0333 324.726 47.6486 324.699 47.2638L319.938 50.0198Z" fill="url(#paint30_linear_464_2600)"/>
<path opacity="0.5" d="M318.864 60.5248L323.616 57.7867C323.777 57.3214 323.92 56.8472 324.045 56.3461L319.294 59.0931C319.168 59.5763 319.025 60.0595 318.864 60.5248Z" fill="url(#paint31_linear_464_2600)"/>
<path opacity="0.5" d="M319.634 47.2905C319.687 47.6574 319.741 48.0243 319.786 48.3912L324.555 45.6352C324.51 45.2683 324.457 44.9014 324.403 44.5345L319.634 47.2905Z" fill="url(#paint32_linear_464_2600)"/>
<path opacity="0.5" d="M319.866 55.8539C319.813 56.2924 319.759 56.7219 319.688 57.1424L324.448 54.3954C324.519 53.9748 324.573 53.5453 324.627 53.0979L319.866 55.8539Z" fill="url(#paint33_linear_464_2600)"/>
<path opacity="0.5" d="M287.403 5.03783L282.58 7.82067C283.376 7.66856 284.2 7.58802 285.059 7.57908L289.873 4.80518C289.014 4.80518 288.191 4.88571 287.403 5.03783Z" fill="url(#paint34_linear_464_2600)"/>
<path opacity="0.5" d="M311.805 26.9158L316.583 24.1598C316.404 23.8645 316.216 23.5782 316.028 23.2919L311.25 26.0479C311.447 26.3342 311.626 26.6295 311.805 26.9158Z" fill="url(#paint35_linear_464_2600)"/>
<path opacity="0.5" d="M320.037 52.8563C320.037 53.2679 320.028 53.6706 320.01 54.0643L324.77 51.3172C324.788 50.9235 324.797 50.5119 324.797 50.1093L320.037 52.8563Z" fill="url(#paint36_linear_464_2600)"/>
<path opacity="0.5" d="M317.817 39.649C317.925 39.9801 318.032 40.3201 318.14 40.6512L322.909 37.8952C322.81 37.5551 322.694 37.2241 322.587 36.884L317.817 39.649Z" fill="url(#paint37_linear_464_2600)"/>
<path opacity="0.5" d="M309.737 15.3281L304.959 18.0931C305.201 18.3436 305.442 18.6031 305.684 18.8626L310.462 16.1066C310.22 15.8382 309.979 15.5787 309.737 15.3281Z" fill="url(#paint38_linear_464_2600)"/>
<path opacity="0.5" d="M298.865 7.11377L294.078 9.87872C294.436 10.0577 294.803 10.2456 295.17 10.4425L299.957 7.6775C299.59 7.48064 299.223 7.29273 298.865 7.11377Z" fill="url(#paint39_linear_464_2600)"/>
<path opacity="0.5" d="M312.145 18.0215C311.921 17.753 311.689 17.4846 311.465 17.2251L306.687 19.9811C306.919 20.2495 307.143 20.509 307.367 20.7775L312.145 18.0215Z" fill="url(#paint40_linear_464_2600)"/>
<path opacity="0.5" d="M302.418 9.15395C302.096 8.9392 301.765 8.73339 301.434 8.52759L296.646 11.2925C296.978 11.4894 297.309 11.7042 297.631 11.9189L302.418 9.15395Z" fill="url(#paint41_linear_464_2600)"/>
<path opacity="0.5" d="M317.88 26.3074C317.71 26.0121 317.531 25.7168 317.361 25.4215L312.583 28.1775C312.762 28.4728 312.932 28.7681 313.102 29.0634L317.88 26.3074Z" fill="url(#paint42_linear_464_2600)"/>
<path opacity="0.5" d="M322.685 60.0237L317.943 62.7618C317.621 63.4061 317.263 64.0056 316.878 64.5693L321.603 61.8401C321.996 61.2764 322.354 60.6769 322.685 60.0237Z" fill="url(#paint43_linear_464_2600)"/>
<path opacity="0.5" d="M292.414 9.12714L297.201 6.36219C296.78 6.19217 296.369 6.03111 295.957 5.88794L291.17 8.65289C291.582 8.79606 291.993 8.95713 292.414 9.12714Z" fill="url(#paint44_linear_464_2600)"/>
<path opacity="0.5" d="M293.998 5.31526C293.479 5.18998 292.978 5.08261 292.477 5.00208L287.681 7.76703C288.182 7.84756 288.692 7.95494 289.202 8.08021L293.998 5.31526Z" fill="url(#paint45_linear_464_2600)"/>
<path opacity="0.5" d="M308.306 21.9497C308.52 22.2182 308.726 22.4956 308.941 22.773L313.719 20.0169C313.513 19.7396 313.299 19.4622 313.084 19.1937L308.306 21.9497Z" fill="url(#paint46_linear_464_2600)"/>
<path opacity="0.5" d="M306.74 12.4558C306.462 12.2142 306.185 11.9816 305.898 11.7489L301.12 14.5139C301.398 14.7465 301.684 14.9792 301.961 15.2207L306.74 12.4558Z" fill="url(#paint47_linear_464_2600)"/>
<path opacity="0.5" d="M299.876 13.5116L304.664 10.7467C304.368 10.514 304.064 10.2993 303.76 10.0756L298.973 12.8405C299.277 13.0642 299.581 13.2879 299.876 13.5116Z" fill="url(#paint48_linear_464_2600)"/>
<path opacity="0.5" d="M308.664 14.2454C308.405 13.9948 308.154 13.7443 307.894 13.5027L303.116 16.2587C303.376 16.5003 303.635 16.7508 303.886 17.0014L308.664 14.2454Z" fill="url(#paint49_linear_464_2600)"/>
<path opacity="0.5" d="M309.827 23.9719C310.024 24.2493 310.23 24.5357 310.427 24.8131L315.205 22.0571C315.008 21.7707 314.811 21.4933 314.605 21.2159L309.827 23.9719Z" fill="url(#paint50_linear_464_2600)"/>
</g>
<path opacity="0.15" d="M279.546 40.9642L307.169 25.0188C305.415 22.7191 303.473 20.6163 301.406 18.8177L277.05 32.8752C277.578 35.5685 278.428 38.2887 279.546 40.9642Z" fill="#1ED6FE"/>
<path opacity="0.15" d="M316.484 49.9212C316.484 49.3217 316.457 48.7132 316.421 48.1047L294.928 60.5157C295.438 60.8557 295.948 61.1779 296.467 61.4821C297.388 62.01 298.292 62.4574 299.178 62.8333L316.305 52.9456C316.412 51.9882 316.484 50.986 316.484 49.9212Z" fill="#1ED6FE"/>
<path opacity="0.15" d="M286.83 53.0799L314.014 37.385C312.707 33.8863 310.927 30.4503 308.806 27.3005L280.7 43.5234C282.365 46.9415 284.449 50.1986 286.83 53.0799Z" fill="#1ED6FE"/>
<path opacity="0.3" d="M258.026 303.688H205.716V101.713L258.026 120.11V303.688Z" fill="url(#paint51_linear_464_2600)"/>
<path d="M234.582 82.5549C227.889 78.6893 221.831 78.3493 217.465 80.9084L212.498 83.8166C208.302 86.4026 205.716 91.7267 205.716 99.252C205.716 114.625 216.507 133.317 229.822 140.995C236.488 144.842 242.519 145.2 246.877 142.677L251.789 139.814C256.058 137.254 258.688 131.895 258.688 124.307C258.688 108.934 247.897 90.2413 234.582 82.5549Z" fill="url(#paint52_linear_464_2600)"/>
<path d="M253.919 127.08C253.919 142.453 243.128 148.681 229.813 140.995C216.498 133.308 205.707 114.616 205.707 99.252C205.707 83.8792 216.498 77.6513 229.813 85.3377C243.137 93.0152 253.919 111.708 253.919 127.08Z" fill="url(#paint53_linear_464_2600)"/>
<path opacity="0.15" d="M209.528 116.459L242.814 97.2387C241.088 94.957 239.208 92.8363 237.213 90.9482L206.87 108.469C207.523 111.135 208.418 113.819 209.528 116.459Z" fill="#1ED6FE"/>
<path opacity="0.15" d="M227.307 139.393L253.794 124.101C253.668 122.651 253.462 121.184 253.167 119.698L223.809 136.646C224.945 137.639 226.108 138.561 227.307 139.393Z" fill="#1ED6FE"/>
<path opacity="0.15" d="M216.544 128.727L249.938 109.444C248.452 105.99 246.6 102.634 244.471 99.5115L210.683 119.018C212.32 122.436 214.298 125.711 216.544 128.727Z" fill="#1ED6FE"/>
<path d="M250.519 125.112C250.519 138.31 241.249 143.661 229.822 137.066C218.386 130.463 209.125 114.419 209.125 101.212C209.125 88.0132 218.395 82.6622 229.822 89.2569C241.257 95.8606 250.519 111.913 250.519 125.112Z" fill="#3F40C9"/>
<path d="M250.358 124.387C250.358 137.156 241.392 142.337 230.332 135.948C219.273 129.568 210.307 114.034 210.307 101.265C210.307 88.4964 219.273 83.3244 230.332 89.7044C241.401 96.0933 250.358 111.618 250.358 124.387Z" fill="url(#paint54_linear_464_2600)"/>
<g opacity="0.5">
<path opacity="0.5" d="M250.851 111.708C250.976 112.039 251.092 112.361 251.209 112.692L255.978 109.936C255.862 109.605 255.745 109.283 255.62 108.952L250.851 111.708Z" fill="url(#paint55_linear_464_2600)"/>
<path opacity="0.5" d="M253.052 119.135C253.123 119.493 253.195 119.851 253.267 120.208L258.036 117.452C257.973 117.095 257.902 116.737 257.821 116.379L253.052 119.135Z" fill="url(#paint56_linear_464_2600)"/>
<path opacity="0.5" d="M252.435 116.584C252.524 116.933 252.614 117.273 252.703 117.622L257.472 114.866C257.383 114.517 257.302 114.177 257.213 113.828L252.435 116.584Z" fill="url(#paint57_linear_464_2600)"/>
<path opacity="0.5" d="M247.7 104.827C247.861 105.131 248.022 105.435 248.183 105.739L252.962 102.983C252.801 102.679 252.648 102.375 252.478 102.071L247.7 104.827Z" fill="url(#paint58_linear_464_2600)"/>
<path opacity="0.5" d="M248.846 107.064C248.998 107.377 249.141 107.69 249.293 107.994L254.062 105.238C253.919 104.925 253.767 104.612 253.615 104.308L248.846 107.064Z" fill="url(#paint59_linear_464_2600)"/>
<path opacity="0.5" d="M249.893 109.354C250.036 109.677 250.161 109.99 250.295 110.312L255.065 107.556C254.93 107.234 254.796 106.921 254.662 106.598L249.893 109.354Z" fill="url(#paint60_linear_464_2600)"/>
<path opacity="0.5" d="M253.821 124.486C253.848 124.87 253.875 125.255 253.893 125.631L258.653 122.884C258.635 122.499 258.609 122.114 258.582 121.73L253.821 124.486Z" fill="url(#paint61_linear_464_2600)"/>
<path opacity="0.5" d="M252.747 134.991L257.498 132.253C257.659 131.787 257.803 131.313 257.928 130.812L253.177 133.559C253.051 134.051 252.908 134.525 252.747 134.991Z" fill="url(#paint62_linear_464_2600)"/>
<path opacity="0.5" d="M253.517 121.765C253.57 122.132 253.624 122.499 253.669 122.866L258.438 120.11C258.393 119.743 258.34 119.376 258.286 119.009L253.517 121.765Z" fill="url(#paint63_linear_464_2600)"/>
<path opacity="0.5" d="M253.749 130.329C253.696 130.767 253.642 131.197 253.57 131.617L258.331 128.87C258.402 128.45 258.456 128.02 258.51 127.573L253.749 130.329Z" fill="url(#paint64_linear_464_2600)"/>
<path opacity="0.5" d="M221.286 79.5036L216.463 82.2865C217.259 82.1344 218.082 82.0538 218.942 82.0449L223.756 79.271C222.897 79.2799 222.073 79.3515 221.286 79.5036Z" fill="url(#paint65_linear_464_2600)"/>
<path opacity="0.5" d="M245.688 101.382L250.466 98.6257C250.287 98.3304 250.099 98.044 249.911 97.7577L245.133 100.514C245.321 100.8 245.509 101.095 245.688 101.382Z" fill="url(#paint66_linear_464_2600)"/>
<path opacity="0.5" d="M253.919 127.322C253.919 127.734 253.91 128.136 253.893 128.53L258.653 125.783C258.671 125.389 258.68 124.978 258.68 124.575L253.919 127.322Z" fill="url(#paint67_linear_464_2600)"/>
<path opacity="0.5" d="M251.7 114.115C251.808 114.446 251.915 114.786 252.022 115.117L256.792 112.361C256.693 112.021 256.577 111.69 256.47 111.35L251.7 114.115Z" fill="url(#paint68_linear_464_2600)"/>
<path opacity="0.5" d="M243.62 89.7939L238.842 92.5589C239.083 92.8094 239.325 93.0689 239.567 93.3284L244.345 90.5724C244.103 90.304 243.862 90.0534 243.62 89.7939Z" fill="url(#paint69_linear_464_2600)"/>
<path opacity="0.5" d="M232.739 81.5796L227.952 84.3445C228.31 84.5235 228.677 84.7114 229.044 84.9083L233.831 82.1433C233.464 81.9465 233.106 81.7586 232.739 81.5796Z" fill="url(#paint70_linear_464_2600)"/>
<path opacity="0.5" d="M246.028 92.4962C245.804 92.2278 245.571 91.9593 245.348 91.6998L240.569 94.4558C240.802 94.7243 241.026 94.9838 241.249 95.2522L246.028 92.4962Z" fill="url(#paint71_linear_464_2600)"/>
<path opacity="0.5" d="M236.292 83.6198C235.97 83.405 235.639 83.1992 235.308 82.9934L230.521 85.7584C230.852 85.9552 231.183 86.17 231.505 86.3847L236.292 83.6198Z" fill="url(#paint72_linear_464_2600)"/>
<path opacity="0.5" d="M251.763 100.782C251.593 100.487 251.414 100.192 251.244 99.8873L246.466 102.643C246.645 102.939 246.815 103.234 246.985 103.529L251.763 100.782Z" fill="url(#paint73_linear_464_2600)"/>
<path opacity="0.5" d="M256.559 134.498L251.817 137.237C251.495 137.881 251.137 138.48 250.752 139.044L255.477 136.315C255.879 135.751 256.237 135.143 256.559 134.498Z" fill="url(#paint74_linear_464_2600)"/>
<path opacity="0.5" d="M226.297 83.593L231.084 80.828C230.663 80.658 230.252 80.4969 229.84 80.3538L225.053 83.1187C225.455 83.2619 225.876 83.4229 226.297 83.593Z" fill="url(#paint75_linear_464_2600)"/>
<path opacity="0.5" d="M227.881 79.7811C227.362 79.6558 226.861 79.5484 226.36 79.4679L221.563 82.2328C222.065 82.3134 222.575 82.4208 223.085 82.546L227.881 79.7811Z" fill="url(#paint76_linear_464_2600)"/>
<path opacity="0.5" d="M242.188 96.4154C242.403 96.6839 242.609 96.9613 242.824 97.2387L247.602 94.4826C247.396 94.2053 247.181 93.9279 246.967 93.6594L242.188 96.4154Z" fill="url(#paint77_linear_464_2600)"/>
<path opacity="0.5" d="M240.622 86.9216C240.345 86.68 240.068 86.4474 239.781 86.2147L235.003 88.9797C235.28 89.2123 235.567 89.445 235.844 89.6866L240.622 86.9216Z" fill="url(#paint78_linear_464_2600)"/>
<path opacity="0.5" d="M233.759 87.9865L238.546 85.2215C238.251 84.9889 237.947 84.7741 237.643 84.5504L232.855 87.3154C233.16 87.5301 233.464 87.7538 233.759 87.9865Z" fill="url(#paint79_linear_464_2600)"/>
<path opacity="0.5" d="M242.538 88.7112C242.279 88.4607 242.028 88.2101 241.769 87.9685L236.99 90.7245C237.25 90.9661 237.509 91.2167 237.76 91.4672L242.538 88.7112Z" fill="url(#paint80_linear_464_2600)"/>
<path opacity="0.5" d="M243.71 98.4378C243.907 98.7152 244.113 99.0015 244.309 99.2789L249.088 96.5229C248.891 96.2365 248.694 95.9592 248.488 95.6818L243.71 98.4378Z" fill="url(#paint81_linear_464_2600)"/>
</g>
<path opacity="0.15" d="M213.42 115.43L241.043 99.4846C239.289 97.1849 237.347 95.0821 235.28 93.2836L210.924 107.341C211.461 110.034 212.311 112.764 213.42 115.43Z" fill="#1ED6FE"/>
<path opacity="0.15" d="M250.358 124.387C250.358 123.787 250.331 123.179 250.295 122.571L228.802 134.982C229.312 135.322 229.822 135.644 230.341 135.948C231.262 136.476 232.166 136.923 233.052 137.299L250.179 127.411C250.295 126.454 250.358 125.452 250.358 124.387Z" fill="#1ED6FE"/>
<path opacity="0.15" d="M220.704 127.546L247.898 111.851C246.591 108.352 244.811 104.916 242.69 101.766L214.584 117.989C216.248 121.407 218.333 124.664 220.704 127.546Z" fill="#1ED6FE"/>
<path opacity="0.1" d="M324.31 312.654H272V209L324.31 227.397V312.654Z" fill="url(#paint82_linear_464_2600)"/>
<path d="M305.102 190.155C298.409 186.29 292.351 185.95 287.984 188.509L283.018 191.417C278.821 194.003 276.235 199.327 276.235 206.852C276.235 222.225 287.027 240.918 300.341 248.595C307.008 252.443 313.039 252.801 317.396 250.277L322.309 247.414C326.577 244.855 329.208 239.495 329.208 231.907C329.208 216.525 318.417 197.842 305.102 190.155Z" fill="url(#paint83_linear_464_2600)"/>
<path d="M324.448 234.681C324.448 250.054 313.656 256.282 300.341 248.595C287.027 240.909 276.235 222.216 276.235 206.852C276.235 191.48 287.027 185.252 300.341 192.938C313.656 200.616 324.448 219.308 324.448 234.681Z" fill="url(#paint84_linear_464_2600)"/>
<path opacity="0.15" d="M280.047 224.051L313.334 204.83C311.607 202.548 309.728 200.428 307.733 198.54L277.39 216.051C278.043 218.735 278.938 221.42 280.047 224.051Z" fill="#1ED6FE"/>
<path opacity="0.15" d="M297.827 246.993L324.313 231.701C324.188 230.252 323.982 228.784 323.687 227.299L294.328 244.246C295.465 245.24 296.628 246.161 297.827 246.993Z" fill="#1ED6FE"/>
<path opacity="0.15" d="M287.062 236.327L320.456 217.044C318.971 213.59 317.119 210.235 314.989 207.112L281.201 226.619C282.839 230.028 284.816 233.312 287.062 236.327Z" fill="#1ED6FE"/>
<path d="M321.038 232.712C321.038 245.911 311.768 251.262 300.341 244.667C288.906 238.063 279.645 222.019 279.645 208.812C279.645 195.614 288.915 190.263 300.341 196.857C311.777 203.461 321.038 219.514 321.038 232.712Z" fill="#3F40C9"/>
<path d="M320.878 231.988C320.878 244.756 311.912 249.937 300.852 243.548C289.792 237.168 280.826 221.635 280.826 208.866C280.826 196.097 289.792 190.925 300.852 197.305C311.921 203.694 320.878 219.219 320.878 231.988Z" fill="url(#paint85_linear_464_2600)"/>
<g opacity="0.5">
<path opacity="0.5" d="M321.37 219.308C321.495 219.639 321.612 219.961 321.728 220.292L326.497 217.536C326.381 217.205 326.265 216.883 326.139 216.552L321.37 219.308Z" fill="url(#paint86_linear_464_2600)"/>
<path opacity="0.5" d="M323.571 226.735C323.643 227.093 323.714 227.451 323.786 227.809L328.555 225.053C328.493 224.695 328.421 224.337 328.341 223.979L323.571 226.735Z" fill="url(#paint87_linear_464_2600)"/>
<path opacity="0.5" d="M322.963 224.185C323.052 224.534 323.142 224.874 323.231 225.223L328.001 222.467C327.911 222.118 327.831 221.778 327.741 221.429L322.963 224.185Z" fill="url(#paint88_linear_464_2600)"/>
<path opacity="0.5" d="M318.22 212.427C318.381 212.731 318.542 213.036 318.703 213.34L323.481 210.584C323.32 210.28 323.168 209.975 322.998 209.671L318.22 212.427Z" fill="url(#paint89_linear_464_2600)"/>
<path opacity="0.5" d="M319.365 214.664C319.517 214.977 319.661 215.29 319.813 215.595L324.582 212.839C324.439 212.525 324.287 212.212 324.135 211.908L319.365 214.664Z" fill="url(#paint90_linear_464_2600)"/>
<path opacity="0.5" d="M320.421 216.955C320.564 217.277 320.689 217.59 320.824 217.912L325.593 215.156C325.459 214.834 325.324 214.521 325.19 214.199L320.421 216.955Z" fill="url(#paint91_linear_464_2600)"/>
<path opacity="0.5" d="M324.341 232.086C324.368 232.471 324.394 232.855 324.412 233.231L329.173 230.484C329.155 230.099 329.128 229.715 329.101 229.33L324.341 232.086Z" fill="url(#paint92_linear_464_2600)"/>
<path opacity="0.5" d="M323.267 242.591L328.018 239.853C328.179 239.388 328.322 238.913 328.448 238.412L323.696 241.159C323.571 241.642 323.428 242.126 323.267 242.591Z" fill="url(#paint93_linear_464_2600)"/>
<path opacity="0.5" d="M324.036 229.357C324.09 229.724 324.143 230.091 324.188 230.457L328.958 227.701C328.913 227.335 328.859 226.968 328.805 226.601L324.036 229.357Z" fill="url(#paint94_linear_464_2600)"/>
<path opacity="0.5" d="M324.269 237.92C324.215 238.359 324.161 238.788 324.09 239.209L328.85 236.462C328.922 236.041 328.975 235.612 329.029 235.164L324.269 237.92Z" fill="url(#paint95_linear_464_2600)"/>
<path opacity="0.5" d="M291.805 187.095L286.982 189.878C287.779 189.726 288.602 189.645 289.461 189.636L294.275 186.854C293.416 186.871 292.593 186.952 291.805 187.095Z" fill="url(#paint96_linear_464_2600)"/>
<path opacity="0.5" d="M316.207 208.982L320.985 206.226C320.806 205.931 320.619 205.644 320.431 205.358L315.652 208.114C315.84 208.4 316.028 208.696 316.207 208.982Z" fill="url(#paint97_linear_464_2600)"/>
<path opacity="0.5" d="M324.439 234.923C324.439 235.334 324.43 235.737 324.412 236.131L329.172 233.383C329.19 232.99 329.199 232.578 329.199 232.175L324.439 234.923Z" fill="url(#paint98_linear_464_2600)"/>
<path opacity="0.5" d="M322.22 221.715C322.327 222.046 322.434 222.386 322.542 222.717L327.311 219.961C327.213 219.621 327.096 219.29 326.989 218.95L322.22 221.715Z" fill="url(#paint99_linear_464_2600)"/>
<path opacity="0.5" d="M314.14 197.394L309.361 200.159C309.603 200.41 309.845 200.669 310.086 200.929L314.864 198.173C314.623 197.904 314.381 197.645 314.14 197.394Z" fill="url(#paint100_linear_464_2600)"/>
<path opacity="0.5" d="M303.259 189.18L298.472 191.945C298.83 192.124 299.196 192.312 299.563 192.509L304.351 189.744C303.984 189.538 303.626 189.359 303.259 189.18Z" fill="url(#paint101_linear_464_2600)"/>
<path opacity="0.5" d="M316.547 200.088C316.323 199.819 316.091 199.551 315.867 199.291L311.089 202.047C311.322 202.316 311.545 202.575 311.769 202.844L316.547 200.088Z" fill="url(#paint102_linear_464_2600)"/>
<path opacity="0.5" d="M306.812 191.22C306.489 191.005 306.158 190.8 305.827 190.594L301.04 193.359C301.371 193.556 301.702 193.77 302.024 193.985L306.812 191.22Z" fill="url(#paint103_linear_464_2600)"/>
<path opacity="0.5" d="M322.283 208.374C322.113 208.078 321.934 207.783 321.764 207.479L316.985 210.235C317.164 210.53 317.334 210.825 317.504 211.121L322.283 208.374Z" fill="url(#paint104_linear_464_2600)"/>
<path opacity="0.5" d="M327.088 242.09L322.345 244.828C322.023 245.472 321.665 246.072 321.28 246.636L326.005 243.906C326.399 243.343 326.756 242.743 327.088 242.09Z" fill="url(#paint105_linear_464_2600)"/>
<path opacity="0.5" d="M296.816 191.193L301.603 188.428C301.183 188.258 300.771 188.097 300.36 187.954L295.572 190.719C295.984 190.862 296.395 191.023 296.816 191.193Z" fill="url(#paint106_linear_464_2600)"/>
<path opacity="0.5" d="M298.4 187.381C297.881 187.256 297.38 187.149 296.879 187.068L292.083 189.833C292.584 189.914 293.094 190.021 293.604 190.146L298.4 187.381Z" fill="url(#paint107_linear_464_2600)"/>
<path opacity="0.5" d="M312.708 204.016C312.923 204.284 313.129 204.562 313.343 204.839L318.122 202.083C317.916 201.806 317.701 201.528 317.486 201.26L312.708 204.016Z" fill="url(#paint108_linear_464_2600)"/>
<path opacity="0.5" d="M311.142 194.513C310.864 194.271 310.587 194.039 310.301 193.806L305.522 196.571C305.8 196.804 306.086 197.036 306.364 197.278L311.142 194.513Z" fill="url(#paint109_linear_464_2600)"/>
<path opacity="0.5" d="M304.279 195.578L309.066 192.813C308.771 192.58 308.466 192.366 308.162 192.142L303.375 194.907C303.679 195.13 303.983 195.354 304.279 195.578Z" fill="url(#paint110_linear_464_2600)"/>
<path opacity="0.5" d="M313.066 196.303C312.807 196.052 312.556 195.802 312.297 195.56L307.519 198.316C307.778 198.558 308.038 198.808 308.288 199.059L313.066 196.303Z" fill="url(#paint111_linear_464_2600)"/>
<path opacity="0.5" d="M314.229 206.038C314.426 206.316 314.632 206.602 314.829 206.879L319.607 204.123C319.41 203.837 319.214 203.56 319.008 203.282L314.229 206.038Z" fill="url(#paint112_linear_464_2600)"/>
</g>
<path opacity="0.15" d="M283.94 223.031L311.563 207.085C309.809 204.785 307.867 202.683 305.8 200.884L281.443 214.942C281.98 217.635 282.83 220.355 283.94 223.031Z" fill="#1ED6FE"/>
<path opacity="0.15" d="M320.877 231.988C320.877 231.388 320.85 230.78 320.815 230.171L299.321 242.582C299.831 242.922 300.341 243.244 300.86 243.548C301.782 244.076 302.686 244.524 303.572 244.9L320.698 235.012C320.815 234.055 320.877 233.052 320.877 231.988Z" fill="#1ED6FE"/>
<path opacity="0.15" d="M291.233 235.146L318.417 219.451C317.111 215.953 315.33 212.517 313.209 209.367L285.104 225.59C286.768 229.008 288.853 232.265 291.233 235.146Z" fill="#1ED6FE"/>
<path opacity="0.7" d="M289.926 125.237C289.622 125.237 289.371 125.488 289.371 125.792V187.748H290.472V125.792C290.481 125.488 290.23 125.237 289.926 125.237Z" fill="url(#paint113_linear_464_2600)"/>
</g>
<defs>
<radialGradient id="paint0_radial_464_2600" cx="0" cy="0" r="1" gradientUnits="userSpaceOnUse" gradientTransform="translate(264.778 330.382) scale(264.777 169.616)">
<stop stop-color="#4B6E71"/>
<stop offset="1" stop-color="#17151D"/>
</radialGradient>
<linearGradient id="paint1_linear_464_2600" x1="268.954" y1="317.356" x2="285.893" y2="317.356" gradientUnits="userSpaceOnUse">
<stop stop-color="#1F6BC4"/>
<stop offset="1" stop-color="#1340A5"/>
</linearGradient>
<linearGradient id="paint2_linear_464_2600" x1="197.179" y1="251.741" x2="1096.51" y2="888.283" gradientUnits="userSpaceOnUse">
<stop stop-color="#2580D3"/>
<stop offset="1" stop-color="#0A208F"/>
</linearGradient>
<linearGradient id="paint3_linear_464_2600" x1="269.771" y1="301.184" x2="285.396" y2="301.184" gradientUnits="userSpaceOnUse">
<stop stop-color="#1F6BC4"/>
<stop offset="1" stop-color="#1340A5"/>
</linearGradient>
<linearGradient id="paint4_linear_464_2600" x1="192.991" y1="265.232" x2="828.948" y2="488.897" gradientUnits="userSpaceOnUse">
<stop stop-color="#2580D3"/>
<stop offset="1" stop-color="#0A208F"/>
</linearGradient>
<linearGradient id="paint5_linear_464_2600" x1="275.562" y1="13.2637" x2="275.562" y2="286.671" gradientUnits="userSpaceOnUse">
<stop offset="0.141992" stop-color="#17151D"/>
<stop offset="1" stop-color="#4CEAF5"/>
</linearGradient>
<linearGradient id="paint6_linear_464_2600" x1="267.383" y1="282.925" x2="285.985" y2="282.925" gradientUnits="userSpaceOnUse">
<stop stop-color="#1F6BC4"/>
<stop offset="1" stop-color="#1340A5"/>
</linearGradient>
<linearGradient id="paint7_linear_464_2600" x1="278.105" y1="275.323" x2="890.699" y2="534.804" gradientUnits="userSpaceOnUse">
<stop stop-color="#3F9AED"/>
<stop offset="1" stop-color="#233AA9"/>
</linearGradient>
<linearGradient id="paint8_linear_464_2600" x1="199.022" y1="230.409" x2="539.256" y2="424.731" gradientUnits="userSpaceOnUse">
<stop stop-color="#2580D3"/>
<stop offset="1" stop-color="#0A208F"/>
</linearGradient>
<linearGradient id="paint9_linear_464_2600" x1="167.264" y1="258.409" x2="167.264" y2="117.261" gradientUnits="userSpaceOnUse">
<stop/>
<stop offset="1" stop-color="#48D8F5"/>
</linearGradient>
<linearGradient id="paint10_linear_464_2600" x1="399.431" y1="236.444" x2="399.431" y2="95.2962" gradientUnits="userSpaceOnUse">
<stop/>
<stop offset="1" stop-color="#48D8F5"/>
</linearGradient>
<linearGradient id="paint11_linear_464_2600" x1="344.959" y1="257.298" x2="344.959" y2="136.131" gradientUnits="userSpaceOnUse">
<stop/>
<stop offset="1" stop-color="#48D8F5"/>
</linearGradient>
<linearGradient id="paint12_linear_464_2600" x1="155.689" y1="155.128" x2="155.689" y2="33.9613" gradientUnits="userSpaceOnUse">
<stop/>
<stop offset="1" stop-color="#48D8F5"/>
</linearGradient>
<linearGradient id="paint13_linear_464_2600" x1="331.313" y1="140.012" x2="331.313" y2="18.0837" gradientUnits="userSpaceOnUse">
<stop/>
<stop offset="1" stop-color="#48D8F5"/>
</linearGradient>
<linearGradient id="paint14_linear_464_2600" x1="374.684" y1="113.983" x2="374.684" y2="47.6354" gradientUnits="userSpaceOnUse">
<stop/>
<stop offset="1" stop-color="#48D8F5"/>
</linearGradient>
<linearGradient id="paint15_linear_464_2600" x1="313.339" y1="154.754" x2="313.339" y2="88.407" gradientUnits="userSpaceOnUse">
<stop/>
<stop offset="1" stop-color="#48D8F5"/>
</linearGradient>
<linearGradient id="paint16_linear_464_2600" x1="222.309" y1="213.138" x2="222.309" y2="146.79" gradientUnits="userSpaceOnUse">
<stop/>
<stop offset="1" stop-color="#48D8F5"/>
</linearGradient>
<linearGradient id="paint17_linear_464_2600" x1="236.293" y1="265.225" x2="236.293" y2="198.877" gradientUnits="userSpaceOnUse">
<stop/>
<stop offset="1" stop-color="#48D8F5"/>
</linearGradient>
<linearGradient id="paint18_linear_464_2600" x1="363.583" y1="236.65" x2="363.583" y2="170.304" gradientUnits="userSpaceOnUse">
<stop/>
<stop offset="1" stop-color="#48D8F5"/>
</linearGradient>
<linearGradient id="paint19_linear_464_2600" x1="192.199" y1="276.283" x2="192.199" y2="154.355" gradientUnits="userSpaceOnUse">
<stop/>
<stop offset="1" stop-color="#48D8F5"/>
</linearGradient>
<linearGradient id="paint20_linear_464_2600" x1="297.991" y1="194.521" x2="297.991" y2="16.1248" gradientUnits="userSpaceOnUse">
<stop/>
<stop offset="1" stop-color="#4CEAF5"/>
</linearGradient>
<linearGradient id="paint21_linear_464_2600" x1="279.215" y1="0.300582" x2="313.592" y2="66.8838" gradientUnits="userSpaceOnUse">
<stop stop-color="#1ED6FE"/>
<stop offset="1" stop-color="#3F40C9"/>
</linearGradient>
<linearGradient id="paint22_linear_464_2600" x1="286.154" y1="9.59448" x2="306.889" y2="71.2556" gradientUnits="userSpaceOnUse">
<stop stop-color="#1ED6FE"/>
<stop offset="1" stop-color="#3F40C9"/>
</linearGradient>
<linearGradient id="paint23_linear_464_2600" x1="282.753" y1="-22.7315" x2="306.581" y2="83.4929" gradientUnits="userSpaceOnUse">
<stop stop-color="#1ED6FE"/>
<stop offset="1" stop-color="#3F40C9"/>
</linearGradient>
<linearGradient id="paint24_linear_464_2600" x1="298.32" y1="-0.938" x2="331.402" y2="57.2095" gradientUnits="userSpaceOnUse">
<stop stop-color="#1ED6FE"/>
<stop offset="1" stop-color="#3F40C9"/>
</linearGradient>
<linearGradient id="paint25_linear_464_2600" x1="296.718" y1="-0.00997001" x2="329.794" y2="58.1256" gradientUnits="userSpaceOnUse">
<stop stop-color="#1ED6FE"/>
<stop offset="1" stop-color="#3F40C9"/>
</linearGradient>
<linearGradient id="paint26_linear_464_2600" x1="297.375" y1="-0.398585" x2="330.458" y2="57.7515" gradientUnits="userSpaceOnUse">
<stop stop-color="#1ED6FE"/>
<stop offset="1" stop-color="#3F40C9"/>
</linearGradient>
<linearGradient id="paint27_linear_464_2600" x1="298.963" y1="-1.29732" x2="332.037" y2="56.8357" gradientUnits="userSpaceOnUse">
<stop stop-color="#1ED6FE"/>
<stop offset="1" stop-color="#3F40C9"/>
</linearGradient>
<linearGradient id="paint28_linear_464_2600" x1="298.806" y1="-1.29961" x2="331.95" y2="56.9582" gradientUnits="userSpaceOnUse">
<stop stop-color="#1ED6FE"/>
<stop offset="1" stop-color="#3F40C9"/>
</linearGradient>
<linearGradient id="paint29_linear_464_2600" x1="298.619" y1="-1.13808" x2="331.721" y2="57.0443" gradientUnits="userSpaceOnUse">
<stop stop-color="#1ED6FE"/>
<stop offset="1" stop-color="#3F40C9"/>
</linearGradient>
<linearGradient id="paint30_linear_464_2600" x1="294.915" y1="0.977697" x2="328.012" y2="59.1517" gradientUnits="userSpaceOnUse">
<stop stop-color="#1ED6FE"/>
<stop offset="1" stop-color="#3F40C9"/>
</linearGradient>
<linearGradient id="paint31_linear_464_2600" x1="290.281" y1="3.63071" x2="323.371" y2="61.7914" gradientUnits="userSpaceOnUse">
<stop stop-color="#1ED6FE"/>
<stop offset="1" stop-color="#3F40C9"/>
</linearGradient>
<linearGradient id="paint32_linear_464_2600" x1="295.9" y1="0.429163" x2="328.99" y2="58.5914" gradientUnits="userSpaceOnUse">
<stop stop-color="#1ED6FE"/>
<stop offset="1" stop-color="#3F40C9"/>
</linearGradient>
<linearGradient id="paint33_linear_464_2600" x1="292.235" y1="2.53856" x2="325.314" y2="60.6828" gradientUnits="userSpaceOnUse">
<stop stop-color="#1ED6FE"/>
<stop offset="1" stop-color="#3F40C9"/>
</linearGradient>
<linearGradient id="paint34_linear_464_2600" x1="286.052" y1="6.01728" x2="319.145" y2="64.1844" gradientUnits="userSpaceOnUse">
<stop stop-color="#1ED6FE"/>
<stop offset="1" stop-color="#3F40C9"/>
</linearGradient>
<linearGradient id="paint35_linear_464_2600" x1="298.899" y1="-1.29823" x2="332.004" y2="56.8883" gradientUnits="userSpaceOnUse">
<stop stop-color="#1ED6FE"/>
<stop offset="1" stop-color="#3F40C9"/>
</linearGradient>
<linearGradient id="paint36_linear_464_2600" x1="293.718" y1="1.66498" x2="326.812" y2="59.8333" gradientUnits="userSpaceOnUse">
<stop stop-color="#1ED6FE"/>
<stop offset="1" stop-color="#3F40C9"/>
</linearGradient>
<linearGradient id="paint37_linear_464_2600" x1="297.877" y1="-0.752156" x2="331.002" y2="57.4703" gradientUnits="userSpaceOnUse">
<stop stop-color="#1ED6FE"/>
<stop offset="1" stop-color="#3F40C9"/>
</linearGradient>
<linearGradient id="paint38_linear_464_2600" x1="297.648" y1="-0.58664" x2="330.756" y2="57.6066" gradientUnits="userSpaceOnUse">
<stop stop-color="#1ED6FE"/>
<stop offset="1" stop-color="#3F40C9"/>
</linearGradient>
<linearGradient id="paint39_linear_464_2600" x1="293.146" y1="1.98008" x2="326.249" y2="60.1637" gradientUnits="userSpaceOnUse">
<stop stop-color="#1ED6FE"/>
<stop offset="1" stop-color="#3F40C9"/>
</linearGradient>
<linearGradient id="paint40_linear_464_2600" x1="298.117" y1="-0.854735" x2="331.225" y2="57.339" gradientUnits="userSpaceOnUse">
<stop stop-color="#1ED6FE"/>
<stop offset="1" stop-color="#3F40C9"/>
</linearGradient>
<linearGradient id="paint41_linear_464_2600" x1="294.43" y1="1.25952" x2="327.503" y2="59.3913" gradientUnits="userSpaceOnUse">
<stop stop-color="#1ED6FE"/>
<stop offset="1" stop-color="#3F40C9"/>
</linearGradient>
<linearGradient id="paint42_linear_464_2600" x1="298.972" y1="-1.33205" x2="332.069" y2="56.8432" gradientUnits="userSpaceOnUse">
<stop stop-color="#1ED6FE"/>
<stop offset="1" stop-color="#3F40C9"/>
</linearGradient>
<linearGradient id="paint43_linear_464_2600" x1="287.345" y1="5.29222" x2="320.439" y2="63.4603" gradientUnits="userSpaceOnUse">
<stop stop-color="#1ED6FE"/>
<stop offset="1" stop-color="#3F40C9"/>
</linearGradient>
<linearGradient id="paint44_linear_464_2600" x1="291.558" y1="2.89061" x2="324.623" y2="61.0089" gradientUnits="userSpaceOnUse">
<stop stop-color="#1ED6FE"/>
<stop offset="1" stop-color="#3F40C9"/>
</linearGradient>
<linearGradient id="paint45_linear_464_2600" x1="289.441" y1="4.08991" x2="322.532" y2="62.2538" gradientUnits="userSpaceOnUse">
<stop stop-color="#1ED6FE"/>
<stop offset="1" stop-color="#3F40C9"/>
</linearGradient>
<linearGradient id="paint46_linear_464_2600" x1="298.485" y1="-1.04268" x2="331.569" y2="57.1082" gradientUnits="userSpaceOnUse">
<stop stop-color="#1ED6FE"/>
<stop offset="1" stop-color="#3F40C9"/>
</linearGradient>
<linearGradient id="paint47_linear_464_2600" x1="296.352" y1="0.159102" x2="329.447" y2="58.3291" gradientUnits="userSpaceOnUse">
<stop stop-color="#1ED6FE"/>
<stop offset="1" stop-color="#3F40C9"/>
</linearGradient>
<linearGradient id="paint48_linear_464_2600" x1="295.477" y1="0.651725" x2="328.583" y2="58.842" gradientUnits="userSpaceOnUse">
<stop stop-color="#1ED6FE"/>
<stop offset="1" stop-color="#3F40C9"/>
</linearGradient>
<linearGradient id="paint49_linear_464_2600" x1="297.063" y1="-0.258812" x2="330.181" y2="57.9505" gradientUnits="userSpaceOnUse">
<stop stop-color="#1ED6FE"/>
<stop offset="1" stop-color="#3F40C9"/>
</linearGradient>
<linearGradient id="paint50_linear_464_2600" x1="298.732" y1="-1.21318" x2="331.848" y2="56.9949" gradientUnits="userSpaceOnUse">
<stop stop-color="#1ED6FE"/>
<stop offset="1" stop-color="#3F40C9"/>
</linearGradient>
<linearGradient id="paint51_linear_464_2600" x1="231.871" y1="268.989" x2="231.871" y2="90.5922" gradientUnits="userSpaceOnUse">
<stop stop-color="#2261AD"/>
<stop offset="1" stop-color="#4CEAF5"/>
</linearGradient>
<linearGradient id="paint52_linear_464_2600" x1="213.095" y1="74.7679" x2="247.472" y2="141.351" gradientUnits="userSpaceOnUse">
<stop stop-color="#1ED6FE"/>
<stop offset="1" stop-color="#3F40C9"/>
</linearGradient>
<linearGradient id="paint53_linear_464_2600" x1="220.034" y1="84.0619" x2="240.769" y2="145.723" gradientUnits="userSpaceOnUse">
<stop stop-color="#1ED6FE"/>
<stop offset="1" stop-color="#3F40C9"/>
</linearGradient>
<linearGradient id="paint54_linear_464_2600" x1="216.633" y1="51.736" x2="240.461" y2="157.96" gradientUnits="userSpaceOnUse">
<stop stop-color="#1ED6FE"/>
<stop offset="1" stop-color="#3F40C9"/>
</linearGradient>
<linearGradient id="paint55_linear_464_2600" x1="232.2" y1="73.5295" x2="265.282" y2="131.677" gradientUnits="userSpaceOnUse">
<stop stop-color="#1ED6FE"/>
<stop offset="1" stop-color="#3F40C9"/>
</linearGradient>
<linearGradient id="paint56_linear_464_2600" x1="230.599" y1="74.4574" x2="263.674" y2="132.593" gradientUnits="userSpaceOnUse">
<stop stop-color="#1ED6FE"/>
<stop offset="1" stop-color="#3F40C9"/>
</linearGradient>
<linearGradient id="paint57_linear_464_2600" x1="231.256" y1="74.0705" x2="264.338" y2="132.218" gradientUnits="userSpaceOnUse">
<stop stop-color="#1ED6FE"/>
<stop offset="1" stop-color="#3F40C9"/>
</linearGradient>
<linearGradient id="paint58_linear_464_2600" x1="232.843" y1="73.1703" x2="265.916" y2="131.303" gradientUnits="userSpaceOnUse">
<stop stop-color="#1ED6FE"/>
<stop offset="1" stop-color="#3F40C9"/>
</linearGradient>
<linearGradient id="paint59_linear_464_2600" x1="232.687" y1="73.1701" x2="265.83" y2="131.424" gradientUnits="userSpaceOnUse">
<stop stop-color="#1ED6FE"/>
<stop offset="1" stop-color="#3F40C9"/>
</linearGradient>
<linearGradient id="paint60_linear_464_2600" x1="232.499" y1="73.3292" x2="265.601" y2="131.512" gradientUnits="userSpaceOnUse">
<stop stop-color="#1ED6FE"/>
<stop offset="1" stop-color="#3F40C9"/>
</linearGradient>
<linearGradient id="paint61_linear_464_2600" x1="228.797" y1="75.4486" x2="261.892" y2="133.618" gradientUnits="userSpaceOnUse">
<stop stop-color="#1ED6FE"/>
<stop offset="1" stop-color="#3F40C9"/>
</linearGradient>
<linearGradient id="paint62_linear_464_2600" x1="224.159" y1="78.0945" x2="257.251" y2="136.259" gradientUnits="userSpaceOnUse">
<stop stop-color="#1ED6FE"/>
<stop offset="1" stop-color="#3F40C9"/>
</linearGradient>
<linearGradient id="paint63_linear_464_2600" x1="229.779" y1="74.8947" x2="262.871" y2="133.06" gradientUnits="userSpaceOnUse">
<stop stop-color="#1ED6FE"/>
<stop offset="1" stop-color="#3F40C9"/>
</linearGradient>
<linearGradient id="paint64_linear_464_2600" x1="226.113" y1="77.0032" x2="259.195" y2="135.15" gradientUnits="userSpaceOnUse">
<stop stop-color="#1ED6FE"/>
<stop offset="1" stop-color="#3F40C9"/>
</linearGradient>
<linearGradient id="paint65_linear_464_2600" x1="219.932" y1="80.4847" x2="253.025" y2="138.652" gradientUnits="userSpaceOnUse">
<stop stop-color="#1ED6FE"/>
<stop offset="1" stop-color="#3F40C9"/>
</linearGradient>
<linearGradient id="paint66_linear_464_2600" x1="232.779" y1="73.1693" x2="265.884" y2="131.356" gradientUnits="userSpaceOnUse">
<stop stop-color="#1ED6FE"/>
<stop offset="1" stop-color="#3F40C9"/>
</linearGradient>
<linearGradient id="paint67_linear_464_2600" x1="227.599" y1="76.1337" x2="260.692" y2="134.3" gradientUnits="userSpaceOnUse">
<stop stop-color="#1ED6FE"/>
<stop offset="1" stop-color="#3F40C9"/>
</linearGradient>
<linearGradient id="paint68_linear_464_2600" x1="231.758" y1="73.7152" x2="264.882" y2="131.938" gradientUnits="userSpaceOnUse">
<stop stop-color="#1ED6FE"/>
<stop offset="1" stop-color="#3F40C9"/>
</linearGradient>
<linearGradient id="paint69_linear_464_2600" x1="231.528" y1="73.8807" x2="264.636" y2="132.074" gradientUnits="userSpaceOnUse">
<stop stop-color="#1ED6FE"/>
<stop offset="1" stop-color="#3F40C9"/>
</linearGradient>
<linearGradient id="paint70_linear_464_2600" x1="227.026" y1="76.447" x2="260.131" y2="134.635" gradientUnits="userSpaceOnUse">
<stop stop-color="#1ED6FE"/>
<stop offset="1" stop-color="#3F40C9"/>
</linearGradient>
<linearGradient id="paint71_linear_464_2600" x1="231.997" y1="73.6111" x2="265.107" y2="131.809" gradientUnits="userSpaceOnUse">
<stop stop-color="#1ED6FE"/>
<stop offset="1" stop-color="#3F40C9"/>
</linearGradient>
<linearGradient id="paint72_linear_464_2600" x1="228.31" y1="75.7273" x2="261.382" y2="133.857" gradientUnits="userSpaceOnUse">
<stop stop-color="#1ED6FE"/>
<stop offset="1" stop-color="#3F40C9"/>
</linearGradient>
<linearGradient id="paint73_linear_464_2600" x1="232.852" y1="73.1341" x2="265.951" y2="131.311" gradientUnits="userSpaceOnUse">
<stop stop-color="#1ED6FE"/>
<stop offset="1" stop-color="#3F40C9"/>
</linearGradient>
<linearGradient id="paint74_linear_464_2600" x1="221.223" y1="79.7547" x2="254.32" y2="137.927" gradientUnits="userSpaceOnUse">
<stop stop-color="#1ED6FE"/>
<stop offset="1" stop-color="#3F40C9"/>
</linearGradient>
<linearGradient id="paint75_linear_464_2600" x1="225.438" y1="77.3583" x2="258.501" y2="135.472" gradientUnits="userSpaceOnUse">
<stop stop-color="#1ED6FE"/>
<stop offset="1" stop-color="#3F40C9"/>
</linearGradient>
<linearGradient id="paint76_linear_464_2600" x1="223.321" y1="78.5572" x2="256.415" y2="136.725" gradientUnits="userSpaceOnUse">
<stop stop-color="#1ED6FE"/>
<stop offset="1" stop-color="#3F40C9"/>
</linearGradient>
<linearGradient id="paint77_linear_464_2600" x1="232.365" y1="73.4237" x2="265.45" y2="131.577" gradientUnits="userSpaceOnUse">
<stop stop-color="#1ED6FE"/>
<stop offset="1" stop-color="#3F40C9"/>
</linearGradient>
<linearGradient id="paint78_linear_464_2600" x1="230.232" y1="74.6259" x2="263.328" y2="132.799" gradientUnits="userSpaceOnUse">
<stop stop-color="#1ED6FE"/>
<stop offset="1" stop-color="#3F40C9"/>
</linearGradient>
<linearGradient id="paint79_linear_464_2600" x1="229.357" y1="75.1184" x2="262.465" y2="133.313" gradientUnits="userSpaceOnUse">
<stop stop-color="#1ED6FE"/>
<stop offset="1" stop-color="#3F40C9"/>
</linearGradient>
<linearGradient id="paint80_linear_464_2600" x1="230.943" y1="74.2074" x2="264.063" y2="132.421" gradientUnits="userSpaceOnUse">
<stop stop-color="#1ED6FE"/>
<stop offset="1" stop-color="#3F40C9"/>
</linearGradient>
<linearGradient id="paint81_linear_464_2600" x1="232.613" y1="73.256" x2="265.727" y2="131.46" gradientUnits="userSpaceOnUse">
<stop stop-color="#1ED6FE"/>
<stop offset="1" stop-color="#3F40C9"/>
</linearGradient>
<linearGradient id="paint82_linear_464_2600" x1="298.156" y1="294.845" x2="298.156" y2="203.29" gradientUnits="userSpaceOnUse">
<stop stop-color="#091C36"/>
<stop offset="1" stop-color="#4CEAF5"/>
</linearGradient>
<linearGradient id="paint83_linear_464_2600" x1="283.616" y1="182.366" x2="317.993" y2="248.949" gradientUnits="userSpaceOnUse">
<stop stop-color="#1ED6FE"/>
<stop offset="1" stop-color="#3F40C9"/>
</linearGradient>
<linearGradient id="paint84_linear_464_2600" x1="290.554" y1="191.66" x2="311.29" y2="253.321" gradientUnits="userSpaceOnUse">
<stop stop-color="#1ED6FE"/>
<stop offset="1" stop-color="#3F40C9"/>
</linearGradient>
<linearGradient id="paint85_linear_464_2600" x1="287.154" y1="159.334" x2="310.982" y2="265.558" gradientUnits="userSpaceOnUse">
<stop stop-color="#1ED6FE"/>
<stop offset="1" stop-color="#3F40C9"/>
</linearGradient>
<linearGradient id="paint86_linear_464_2600" x1="302.723" y1="181.131" x2="335.801" y2="239.273" gradientUnits="userSpaceOnUse">
<stop stop-color="#1ED6FE"/>
<stop offset="1" stop-color="#3F40C9"/>
</linearGradient>
<linearGradient id="paint87_linear_464_2600" x1="301.12" y1="182.057" x2="334.194" y2="240.191" gradientUnits="userSpaceOnUse">
<stop stop-color="#1ED6FE"/>
<stop offset="1" stop-color="#3F40C9"/>
</linearGradient>
<linearGradient id="paint88_linear_464_2600" x1="301.778" y1="181.672" x2="334.858" y2="239.815" gradientUnits="userSpaceOnUse">
<stop stop-color="#1ED6FE"/>
<stop offset="1" stop-color="#3F40C9"/>
</linearGradient>
<linearGradient id="paint89_linear_464_2600" x1="303.363" y1="180.768" x2="336.437" y2="238.901" gradientUnits="userSpaceOnUse">
<stop stop-color="#1ED6FE"/>
<stop offset="1" stop-color="#3F40C9"/>
</linearGradient>
<linearGradient id="paint90_linear_464_2600" x1="303.207" y1="180.767" x2="336.35" y2="239.022" gradientUnits="userSpaceOnUse">
<stop stop-color="#1ED6FE"/>
<stop offset="1" stop-color="#3F40C9"/>
</linearGradient>
<linearGradient id="paint91_linear_464_2600" x1="303.018" y1="180.925" x2="336.122" y2="239.112" gradientUnits="userSpaceOnUse">
<stop stop-color="#1ED6FE"/>
<stop offset="1" stop-color="#3F40C9"/>
</linearGradient>
<linearGradient id="paint92_linear_464_2600" x1="299.314" y1="183.04" x2="332.414" y2="241.217" gradientUnits="userSpaceOnUse">
<stop stop-color="#1ED6FE"/>
<stop offset="1" stop-color="#3F40C9"/>
</linearGradient>
<linearGradient id="paint93_linear_464_2600" x1="294.681" y1="185.696" x2="327.77" y2="243.857" gradientUnits="userSpaceOnUse">
<stop stop-color="#1ED6FE"/>
<stop offset="1" stop-color="#3F40C9"/>
</linearGradient>
<linearGradient id="paint94_linear_464_2600" x1="300.297" y1="182.489" x2="333.391" y2="240.658" gradientUnits="userSpaceOnUse">
<stop stop-color="#1ED6FE"/>
<stop offset="1" stop-color="#3F40C9"/>
</linearGradient>
<linearGradient id="paint95_linear_464_2600" x1="296.637" y1="184.606" x2="329.715" y2="242.748" gradientUnits="userSpaceOnUse">
<stop stop-color="#1ED6FE"/>
<stop offset="1" stop-color="#3F40C9"/>
</linearGradient>
<linearGradient id="paint96_linear_464_2600" x1="290.453" y1="188.083" x2="323.548" y2="246.254" gradientUnits="userSpaceOnUse">
<stop stop-color="#1ED6FE"/>
<stop offset="1" stop-color="#3F40C9"/>
</linearGradient>
<linearGradient id="paint97_linear_464_2600" x1="303.3" y1="180.767" x2="336.404" y2="238.954" gradientUnits="userSpaceOnUse">
<stop stop-color="#1ED6FE"/>
<stop offset="1" stop-color="#3F40C9"/>
</linearGradient>
<linearGradient id="paint98_linear_464_2600" x1="298.118" y1="183.728" x2="331.214" y2="241.899" gradientUnits="userSpaceOnUse">
<stop stop-color="#1ED6FE"/>
<stop offset="1" stop-color="#3F40C9"/>
</linearGradient>
<linearGradient id="paint99_linear_464_2600" x1="302.281" y1="181.318" x2="335.401" y2="239.533" gradientUnits="userSpaceOnUse">
<stop stop-color="#1ED6FE"/>
<stop offset="1" stop-color="#3F40C9"/>
</linearGradient>
<linearGradient id="paint100_linear_464_2600" x1="302.049" y1="181.479" x2="335.156" y2="239.671" gradientUnits="userSpaceOnUse">
<stop stop-color="#1ED6FE"/>
<stop offset="1" stop-color="#3F40C9"/>
</linearGradient>
<linearGradient id="paint101_linear_464_2600" x1="297.547" y1="184.045" x2="330.65" y2="242.231" gradientUnits="userSpaceOnUse">
<stop stop-color="#1ED6FE"/>
<stop offset="1" stop-color="#3F40C9"/>
</linearGradient>
<linearGradient id="paint102_linear_464_2600" x1="302.518" y1="181.21" x2="335.627" y2="239.406" gradientUnits="userSpaceOnUse">
<stop stop-color="#1ED6FE"/>
<stop offset="1" stop-color="#3F40C9"/>
</linearGradient>
<linearGradient id="paint103_linear_464_2600" x1="298.831" y1="183.325" x2="331.903" y2="241.456" gradientUnits="userSpaceOnUse">
<stop stop-color="#1ED6FE"/>
<stop offset="1" stop-color="#3F40C9"/>
</linearGradient>
<linearGradient id="paint104_linear_464_2600" x1="303.373" y1="180.734" x2="336.47" y2="238.907" gradientUnits="userSpaceOnUse">
<stop stop-color="#1ED6FE"/>
<stop offset="1" stop-color="#3F40C9"/>
</linearGradient>
<linearGradient id="paint105_linear_464_2600" x1="291.743" y1="187.354" x2="324.84" y2="245.526" gradientUnits="userSpaceOnUse">
<stop stop-color="#1ED6FE"/>
<stop offset="1" stop-color="#3F40C9"/>
</linearGradient>
<linearGradient id="paint106_linear_464_2600" x1="295.959" y1="184.956" x2="329.021" y2="243.07" gradientUnits="userSpaceOnUse">
<stop stop-color="#1ED6FE"/>
<stop offset="1" stop-color="#3F40C9"/>
</linearGradient>
<linearGradient id="paint107_linear_464_2600" x1="293.842" y1="186.155" x2="326.932" y2="244.317" gradientUnits="userSpaceOnUse">
<stop stop-color="#1ED6FE"/>
<stop offset="1" stop-color="#3F40C9"/>
</linearGradient>
<linearGradient id="paint108_linear_464_2600" x1="302.887" y1="181.025" x2="335.967" y2="239.17" gradientUnits="userSpaceOnUse">
<stop stop-color="#1ED6FE"/>
<stop offset="1" stop-color="#3F40C9"/>
</linearGradient>
<linearGradient id="paint109_linear_464_2600" x1="300.753" y1="182.226" x2="333.846" y2="240.391" gradientUnits="userSpaceOnUse">
<stop stop-color="#1ED6FE"/>
<stop offset="1" stop-color="#3F40C9"/>
</linearGradient>
<linearGradient id="paint110_linear_464_2600" x1="299.877" y1="182.717" x2="332.985" y2="240.909" gradientUnits="userSpaceOnUse">
<stop stop-color="#1ED6FE"/>
<stop offset="1" stop-color="#3F40C9"/>
</linearGradient>
<linearGradient id="paint111_linear_464_2600" x1="301.464" y1="181.807" x2="334.581" y2="240.016" gradientUnits="userSpaceOnUse">
<stop stop-color="#1ED6FE"/>
<stop offset="1" stop-color="#3F40C9"/>
</linearGradient>
<linearGradient id="paint112_linear_464_2600" x1="303.132" y1="180.852" x2="336.249" y2="239.061" gradientUnits="userSpaceOnUse">
<stop stop-color="#1ED6FE"/>
<stop offset="1" stop-color="#3F40C9"/>
</linearGradient>
<linearGradient id="paint113_linear_464_2600" x1="289.928" y1="187.567" x2="289.928" y2="121.219" gradientUnits="userSpaceOnUse">
<stop/>
<stop offset="1" stop-color="#48D8F5"/>
</linearGradient>
<clipPath id="clip0_464_2600">
<rect width="543.586" height="500" fill="white"/>
</clipPath>
</defs>
</svg>
