<svg width="60" height="60" viewBox="0 0 60 60" fill="none" xmlns="http://www.w3.org/2000/svg">
<rect x="0.5" y="0.5" width="59" height="59" rx="29.5" fill="#FF4221" fill-opacity="0.15" stroke="#FF4221"/>
<path fill-rule="evenodd" clip-rule="evenodd" d="M17.6875 29.4999C17.6875 29.2761 17.7764 29.0615 17.9346 28.9033C18.0929 28.7451 18.3075 28.6562 18.5312 28.6562L38.4319 28.6562L33.1214 23.3473C32.9629 23.1889 32.8739 22.974 32.8739 22.7499C32.8739 22.5259 32.9629 22.311 33.1214 22.1525C33.2798 21.9941 33.4947 21.9051 33.7188 21.9051C33.9428 21.9051 34.1577 21.9941 34.3161 22.1525L41.0661 28.9025C41.1447 28.9809 41.207 29.074 41.2496 29.1765C41.2921 29.279 41.314 29.3889 41.314 29.4999C41.314 29.6109 41.2921 29.7208 41.2496 29.8233C41.207 29.9258 41.1447 30.0189 41.0661 30.0973L34.3161 36.8473C34.1577 37.0057 33.9428 37.0947 33.7188 37.0947C33.4947 37.0947 33.2798 37.0057 33.1214 36.8473C32.9629 36.6889 32.8739 36.474 32.8739 36.2499C32.8739 36.0259 32.9629 35.811 33.1214 35.6525L38.4319 30.3437L18.5312 30.3437C18.3075 30.3437 18.0929 30.2548 17.9346 30.0965C17.7764 29.9383 17.6875 29.7237 17.6875 29.4999Z" fill="#FF4221"/>
</svg>
